<svg width="820" height="596" viewBox="0 0 820 596" fill="none" xmlns="http://www.w3.org/2000/svg">
<g clip-path="url(#clip0)">
<rect width="820" height="596" fill="white"/>
<path d="M73.6875 423.391C73.5469 424.594 73.1016 425.523 72.3516 426.18C71.6068 426.831 70.6146 427.156 69.375 427.156C68.0312 427.156 66.9531 426.674 66.1406 425.711C65.3333 424.747 64.9297 423.458 64.9297 421.844V420.75C64.9297 419.693 65.1172 418.763 65.4922 417.961C65.8724 417.159 66.4089 416.544 67.1016 416.117C67.7943 415.685 68.5964 415.469 69.5078 415.469C70.7161 415.469 71.6849 415.807 72.4141 416.484C73.1432 417.156 73.5677 418.089 73.6875 419.281H72.1797C72.0495 418.375 71.7656 417.719 71.3281 417.312C70.8958 416.906 70.2891 416.703 69.5078 416.703C68.5495 416.703 67.7969 417.057 67.25 417.766C66.7083 418.474 66.4375 419.482 66.4375 420.789V421.891C66.4375 423.125 66.6953 424.107 67.2109 424.836C67.7266 425.565 68.4479 425.93 69.375 425.93C70.2083 425.93 70.8464 425.742 71.2891 425.367C71.737 424.987 72.0339 424.328 72.1797 423.391H73.6875ZM78.1953 423.414L78.4141 424.914L78.7344 423.562L80.9844 415.625H82.25L84.4453 423.562L84.7578 424.938L85 423.406L86.7656 415.625H88.2734L85.5156 427H84.1484L81.8047 418.711L81.625 417.844L81.4453 418.711L79.0156 427H77.6484L74.8984 415.625H76.3984L78.1953 423.414Z" fill="white"/>
<path d="M15 25H80L106 38L80 51H15V25Z" fill="#655AFA"/>
<path d="M34.6875 39.5106C34.5469 40.7137 34.1016 41.6434 33.3516 42.2997C32.6068 42.9507 31.6146 43.2762 30.375 43.2762C29.0312 43.2762 27.9531 42.7945 27.1406 41.8309C26.3333 40.8674 25.9297 39.5783 25.9297 37.9637V36.87C25.9297 35.8127 26.1172 34.883 26.4922 34.0809C26.8724 33.2788 27.4089 32.6643 28.1016 32.2372C28.7943 31.8049 29.5964 31.5887 30.5078 31.5887C31.7161 31.5887 32.6849 31.9273 33.4141 32.6044C34.1432 33.2762 34.5677 34.2085 34.6875 35.4012H33.1797C33.0495 34.495 32.7656 33.8387 32.3281 33.4325C31.8958 33.0262 31.2891 32.8231 30.5078 32.8231C29.5495 32.8231 28.7969 33.1773 28.25 33.8856C27.7083 34.594 27.4375 35.6018 27.4375 36.9091V38.0106C27.4375 39.245 27.6953 40.2268 28.2109 40.9559C28.7266 41.6851 29.4479 42.0497 30.375 42.0497C31.2083 42.0497 31.8464 41.8622 32.2891 41.4872C32.737 41.107 33.0339 40.4481 33.1797 39.5106H34.6875ZM39.1953 39.5341L39.4141 41.0341L39.7344 39.6825L41.9844 31.745H43.25L45.4453 39.6825L45.7578 41.0575L46 39.5262L47.7656 31.745H49.2734L46.5156 43.12H45.1484L42.8047 34.8309L42.625 33.9637L42.4453 34.8309L40.0156 43.12H38.6484L35.8984 31.745H37.3984L39.1953 39.5341Z" fill="white"/>
<path d="M106 409H41L15 422L41 435H106V409Z" fill="#655AFA"/>
<path d="M78.6875 423.391C78.5469 424.594 78.1016 425.523 77.3516 426.18C76.6068 426.831 75.6146 427.156 74.375 427.156C73.0312 427.156 71.9531 426.674 71.1406 425.711C70.3333 424.747 69.9297 423.458 69.9297 421.844V420.75C69.9297 419.693 70.1172 418.763 70.4922 417.961C70.8724 417.159 71.4089 416.544 72.1016 416.117C72.7943 415.685 73.5964 415.469 74.5078 415.469C75.7161 415.469 76.6849 415.807 77.4141 416.484C78.1432 417.156 78.5677 418.089 78.6875 419.281H77.1797C77.0495 418.375 76.7656 417.719 76.3281 417.312C75.8958 416.906 75.2891 416.703 74.5078 416.703C73.5495 416.703 72.7969 417.057 72.25 417.766C71.7083 418.474 71.4375 419.482 71.4375 420.789V421.891C71.4375 423.125 71.6953 424.107 72.2109 424.836C72.7266 425.565 73.4479 425.93 74.375 425.93C75.2083 425.93 75.8464 425.742 76.2891 425.367C76.737 424.987 77.0339 424.328 77.1797 423.391H78.6875ZM83.1953 423.414L83.4141 424.914L83.7344 423.562L85.9844 415.625H87.25L89.4453 423.562L89.7578 424.938L90 423.406L91.7656 415.625H93.2734L90.5156 427H89.1484L86.8047 418.711L86.625 417.844L86.4453 418.711L84.0156 427H82.6484L79.8984 415.625H81.3984L83.1953 423.414Z" fill="white"/>
<line x1="101" y1="38" x2="303" y2="38" stroke="#655AFA" stroke-width="4"/>
<line x1="355" y1="38" x2="419" y2="38" stroke="#655AFA" stroke-width="4"/>
<line x1="417" y1="38" x2="417" y2="123" stroke="#655AFA" stroke-width="4"/>
<circle cx="327" cy="38" r="28" transform="rotate(-90 327 38)" fill="#C4C4C4"/>
<path d="M355 38L329 16.0607V59.9394L355 38Z" fill="black"/>
<path d="M261.939 16.4932V20H259.889V10.0469H263.771C264.519 10.0469 265.175 10.1836 265.74 10.457C266.31 10.7305 266.747 11.1201 267.053 11.626C267.358 12.1273 267.511 12.6992 267.511 13.3418C267.511 14.3171 267.176 15.0872 266.506 15.6523C265.84 16.2129 264.918 16.4932 263.737 16.4932H261.939ZM261.939 14.832H263.771C264.314 14.832 264.726 14.7044 265.009 14.4492C265.296 14.194 265.439 13.8294 265.439 13.3555C265.439 12.8678 265.296 12.4736 265.009 12.1729C264.722 11.8721 264.325 11.7171 263.819 11.708H261.939V14.832ZM273.226 19.248C272.738 19.8405 272.063 20.1367 271.202 20.1367C270.409 20.1367 269.803 19.9089 269.384 19.4531C268.969 18.9974 268.757 18.3298 268.748 17.4502V12.6035H270.724V17.3818C270.724 18.152 271.075 18.5371 271.776 18.5371C272.446 18.5371 272.907 18.3047 273.157 17.8398V12.6035H275.14V20H273.28L273.226 19.248ZM278.482 12.6035L278.544 13.4307C279.068 12.7881 279.777 12.4668 280.67 12.4668C281.622 12.4668 282.276 12.8428 282.632 13.5947C283.151 12.8428 283.892 12.4668 284.854 12.4668C285.656 12.4668 286.253 12.7015 286.645 13.1709C287.036 13.6357 287.232 14.3376 287.232 15.2764V20H285.25V15.2832C285.25 14.8639 285.168 14.5586 285.004 14.3672C284.84 14.1712 284.55 14.0732 284.136 14.0732C283.543 14.0732 283.133 14.3558 282.905 14.9209L282.912 20H280.937V15.29C280.937 14.8617 280.852 14.5518 280.684 14.3604C280.515 14.1689 280.228 14.0732 279.822 14.0732C279.262 14.0732 278.856 14.3057 278.605 14.7705V20H276.63V12.6035H278.482ZM295.415 16.3701C295.415 17.5094 295.155 18.4232 294.636 19.1113C294.121 19.7949 293.424 20.1367 292.544 20.1367C291.797 20.1367 291.193 19.877 290.732 19.3574V22.8438H288.757V12.6035H290.589L290.657 13.3281C291.136 12.7539 291.76 12.4668 292.53 12.4668C293.442 12.4668 294.15 12.804 294.656 13.4785C295.162 14.153 295.415 15.0827 295.415 16.2676V16.3701ZM293.439 16.2266C293.439 15.5384 293.316 15.0075 293.07 14.6338C292.829 14.2601 292.476 14.0732 292.011 14.0732C291.391 14.0732 290.965 14.3102 290.732 14.7842V17.8125C290.974 18.3001 291.405 18.5439 292.024 18.5439C292.968 18.5439 293.439 17.7715 293.439 16.2266Z" fill="black"/>
<rect x="386" y="156" width="162" height="321" fill="#7F7F7F" class="test"/>
<line x1="450" y1="504" x2="450" y2="578" stroke="#FF0000" stroke-width="4"/>
<line x1="448" y1="579" x2="714" y2="579" stroke="#FF0000" stroke-width="4"/>
<path d="M714 568H779L805 580.5L779 593H714V568Z" fill="#FF0000"/>
<path d="M734.273 586H731.93V581.125H727.359V586H725.016V574.625H727.359V579.234H731.93V574.625H734.273V586ZM745.188 582.719L746.719 574.625H749.055L746.531 586H744.172L742.32 578.391L740.469 586H738.109L735.586 574.625H737.922L739.461 582.703L741.336 574.625H743.32L745.188 582.719Z" fill="white"/>
<path d="M15 212H80L106 224.5L80 237H15V212Z" fill="#FF0000"/>
<path d="M35.2734 230H32.9297V225.125H28.3594V230H26.0156V218.625H28.3594V223.234H32.9297V218.625H35.2734V230ZM46.1875 226.719L47.7188 218.625H50.0547L47.5312 230H45.1719L43.3203 222.391L41.4688 230H39.1094L36.5859 218.625H38.9219L40.4609 226.703L42.3359 218.625H44.3203L46.1875 226.719Z" fill="white"/>
<rect x="509" y="546.5" width="17" height="17" fill="#7F7F7F" stroke="black"/>
<line x1="517" y1="562.5" x2="517" y2="579" stroke="black" stroke-width="2"/>
<path d="M493.25 565.577L516.5 579L493.25 592.423V565.577Z" fill="#7F7F7F" stroke="black"/>
<path d="M540.75 565.577L517.5 579L540.75 592.423V565.577Z" fill="#7F7F7F" stroke="black"/>
<path d="M537.566 551.532L539.822 544.047H542.105L538.64 554H536.5L533.048 544.047H535.324L537.566 551.532ZM546.891 554C546.799 553.822 546.733 553.601 546.692 553.337C546.214 553.87 545.592 554.137 544.826 554.137C544.102 554.137 543.5 553.927 543.021 553.508C542.548 553.089 542.311 552.56 542.311 551.922C542.311 551.138 542.6 550.536 543.179 550.117C543.762 549.698 544.603 549.486 545.701 549.481H546.61V549.058C546.61 548.716 546.521 548.442 546.344 548.237C546.171 548.032 545.895 547.93 545.517 547.93C545.184 547.93 544.922 548.009 544.73 548.169C544.544 548.328 544.45 548.547 544.45 548.825H542.475C542.475 548.397 542.607 548 542.871 547.636C543.135 547.271 543.509 546.986 543.992 546.781C544.475 546.572 545.018 546.467 545.619 546.467C546.531 546.467 547.253 546.697 547.786 547.157C548.324 547.613 548.593 548.256 548.593 549.085V552.291C548.597 552.993 548.695 553.524 548.887 553.884V554H546.891ZM545.257 552.626C545.549 552.626 545.817 552.562 546.063 552.435C546.31 552.302 546.492 552.127 546.61 551.908V550.637H545.872C544.883 550.637 544.357 550.979 544.293 551.662L544.286 551.778C544.286 552.024 544.373 552.227 544.546 552.387C544.719 552.546 544.956 552.626 545.257 552.626ZM552.195 554H550.213V543.5H552.195V554ZM556.598 551.587L557.972 546.604H560.036L557.541 554H555.654L553.159 546.604H555.224L556.598 551.587ZM564.22 554.137C563.135 554.137 562.251 553.804 561.567 553.139C560.888 552.473 560.549 551.587 560.549 550.479V550.288C560.549 549.545 560.692 548.882 560.979 548.299C561.267 547.711 561.672 547.26 562.196 546.945C562.725 546.626 563.326 546.467 564.001 546.467C565.013 546.467 565.808 546.786 566.387 547.424C566.97 548.062 567.262 548.966 567.262 550.138V550.944H562.552C562.616 551.427 562.807 551.815 563.126 552.106C563.45 552.398 563.857 552.544 564.35 552.544C565.111 552.544 565.705 552.268 566.134 551.717L567.104 552.804C566.808 553.223 566.407 553.551 565.901 553.788C565.396 554.021 564.835 554.137 564.22 554.137ZM563.994 548.066C563.602 548.066 563.283 548.199 563.037 548.463C562.796 548.727 562.641 549.105 562.572 549.598H565.32V549.44C565.311 549.003 565.193 548.666 564.965 548.429C564.737 548.187 564.413 548.066 563.994 548.066Z" fill="black"/>
<rect x="386" y="287" width="162" height="190" fill="#655AFA"/>
<path fill-rule="evenodd" clip-rule="evenodd" d="M279.857 175.155V191.292C278.341 192.145 277.416 193.661 277.414 195.295C277.414 197.891 279.704 199.995 282.53 199.995C285.355 199.995 287.646 197.891 287.646 195.295C287.643 193.662 286.718 192.147 285.203 191.294V175.155H279.857Z" fill="#C0392B"/>
<path fill-rule="evenodd" clip-rule="evenodd" d="M282.53 156.095C281.054 156.095 279.857 157.195 279.857 158.551V191.291C279.111 191.711 278.495 192.3 278.068 193C277.64 193.701 277.415 194.491 277.414 195.295C277.414 195.912 277.546 196.523 277.803 197.093C278.061 197.664 278.437 198.182 278.912 198.618C279.387 199.055 279.951 199.401 280.572 199.637C281.193 199.873 281.858 199.995 282.53 199.995C283.202 199.995 283.867 199.873 284.488 199.637C285.108 199.401 285.672 199.055 286.147 198.618C286.622 198.182 286.999 197.664 287.256 197.093C287.513 196.523 287.646 195.912 287.646 195.295C287.644 194.492 287.419 193.702 286.992 193.002C286.564 192.301 285.948 191.713 285.203 191.294V158.551C285.203 157.195 284.006 156.095 282.53 156.095V156.095Z" stroke="black" stroke-width="0.356871" stroke-linecap="round" stroke-linejoin="round"/>
<path d="M286.984 166.259H289.69" stroke="black" stroke-width="0.375685"/>
<path d="M286.984 178.748H289.69" stroke="black" stroke-width="0.375685"/>
<path d="M286.984 169.381H289.69" stroke="black" stroke-width="0.375685"/>
<path d="M286.984 163.136H289.69" stroke="black" stroke-width="0.375685"/>
<path d="M286.984 175.625H289.69" stroke="black" stroke-width="0.375685"/>
<path d="M286.984 181.87H289.69" stroke="black" stroke-width="0.375685"/>
<path d="M286.984 184.992H291.7" stroke="black" stroke-width="0.375685"/>
<path d="M286.984 172.503H291.7" stroke="black" stroke-width="0.375685"/>
<path d="M286.984 160.014H291.7" stroke="black" stroke-width="0.375685"/>
<path d="M279.1 195.301C279.408 196.725 280.313 197.817 281.96 198.225" stroke="white" stroke-width="0.277383" stroke-linecap="round" stroke-linejoin="round"/>
<path d="M399.461 179.625C399.461 177.485 401.196 175.75 403.336 175.75C405.476 175.75 407.211 177.485 407.211 179.625C407.211 181.765 405.476 183.5 403.336 183.5C401.196 183.5 399.461 181.765 399.461 179.625Z" stroke="black"/>
<mask id="path-38-inside-1" fill="white">
<path fill-rule="evenodd" clip-rule="evenodd" d="M411.678 180.5C411.48 182.694 410.424 184.64 408.847 186H412.462C412.953 184.2 412.953 182.3 412.462 180.5H411.678ZM398.076 186H394.211C393.962 184.175 393.962 182.325 394.211 180.5H395.244C395.442 182.694 396.499 184.64 398.076 186Z"/>
</mask>
<path d="M411.678 180.5V179.5H410.764L410.682 180.41L411.678 180.5ZM408.847 186L408.194 185.243L406.156 187H408.847V186ZM412.462 186V187H413.226L413.426 186.263L412.462 186ZM412.462 180.5L413.426 180.237L413.226 179.5H412.462V180.5ZM398.076 186V187H400.766L398.729 185.243L398.076 186ZM394.211 186L393.22 186.135L393.338 187H394.211V186ZM394.211 180.5V179.5H393.338L393.22 180.365L394.211 180.5ZM395.244 180.5L396.24 180.41L396.158 179.5H395.244V180.5ZM410.682 180.41C410.509 182.336 409.581 184.046 408.194 185.243L409.5 186.757C411.266 185.234 412.452 183.052 412.674 180.59L410.682 180.41ZM412.462 185H408.847V187H412.462V185ZM411.497 180.763C411.941 182.391 411.941 184.109 411.497 185.737L413.426 186.263C413.965 184.29 413.965 182.21 413.426 180.237L411.497 180.763ZM411.678 181.5H412.462V179.5H411.678V181.5ZM398.076 185H394.211V187H398.076V185ZM395.202 185.865C394.965 184.13 394.965 182.37 395.202 180.635L393.22 180.365C392.959 182.279 392.959 184.221 393.22 186.135L395.202 185.865ZM394.211 181.5H395.244V179.5H394.211V181.5ZM398.729 185.243C397.341 184.046 396.414 182.336 396.24 180.41L394.248 180.59C394.47 183.052 395.656 185.234 397.423 186.757L398.729 185.243Z" fill="black" mask="url(#path-38-inside-1)"/>
<mask id="path-40-inside-2" fill="white">
<path fill-rule="evenodd" clip-rule="evenodd" d="M401.711 166.25H405.211V165.75H405.711C406.126 165.75 406.461 165.414 406.461 165C406.461 164.586 406.126 164.25 405.711 164.25H405.211V162.75H405.711C406.126 162.75 406.461 162.414 406.461 162C406.461 161.586 406.126 161.25 405.711 161.25H405.211V157.75H401.711V161.25H401.211C400.797 161.25 400.461 161.586 400.461 162C400.461 162.414 400.797 162.75 401.211 162.75H401.711V164.25H401.211C400.797 164.25 400.461 164.586 400.461 165C400.461 165.414 400.797 165.75 401.211 165.75H401.711V166.25Z"/>
</mask>
<path d="M405.211 166.25V167.25H406.211V166.25H405.211ZM401.711 166.25H400.711V167.25H401.711V166.25ZM405.211 165.75V164.75H404.211V165.75H405.211ZM405.211 164.25H404.211V165.25H405.211V164.25ZM405.211 162.75V161.75H404.211V162.75H405.211ZM405.211 161.25H404.211V162.25H405.211V161.25ZM405.211 157.75H406.211V156.75H405.211V157.75ZM401.711 157.75V156.75H400.711V157.75H401.711ZM401.711 161.25V162.25H402.711V161.25H401.711ZM401.711 162.75H402.711V161.75H401.711V162.75ZM401.711 164.25V165.25H402.711V164.25H401.711ZM401.711 165.75H402.711V164.75H401.711V165.75ZM405.211 165.25H401.711V167.25H405.211V165.25ZM404.211 165.75V166.25H406.211V165.75H404.211ZM405.211 166.75H405.711V164.75H405.211V166.75ZM405.711 166.75C406.678 166.75 407.461 165.966 407.461 165H405.461C405.461 164.862 405.573 164.75 405.711 164.75V166.75ZM407.461 165C407.461 164.034 406.678 163.25 405.711 163.25V165.25C405.573 165.25 405.461 165.138 405.461 165H407.461ZM405.711 163.25H405.211V165.25H405.711V163.25ZM404.211 162.75V164.25H406.211V162.75H404.211ZM405.211 163.75H405.711V161.75H405.211V163.75ZM405.711 163.75C406.678 163.75 407.461 162.966 407.461 162H405.461C405.461 161.862 405.573 161.75 405.711 161.75V163.75ZM407.461 162C407.461 161.034 406.678 160.25 405.711 160.25V162.25C405.573 162.25 405.461 162.138 405.461 162H407.461ZM405.711 160.25H405.211V162.25H405.711V160.25ZM404.211 157.75V161.25H406.211V157.75H404.211ZM401.711 158.75H405.211V156.75H401.711V158.75ZM402.711 161.25V157.75H400.711V161.25H402.711ZM401.711 160.25H401.211V162.25H401.711V160.25ZM401.211 160.25C400.245 160.25 399.461 161.034 399.461 162H401.461C401.461 162.138 401.349 162.25 401.211 162.25V160.25ZM399.461 162C399.461 162.966 400.245 163.75 401.211 163.75V161.75C401.349 161.75 401.461 161.862 401.461 162H399.461ZM401.211 163.75H401.711V161.75H401.211V163.75ZM402.711 164.25V162.75H400.711V164.25H402.711ZM401.711 163.25H401.211V165.25H401.711V163.25ZM401.211 163.25C400.245 163.25 399.461 164.034 399.461 165H401.461C401.461 165.138 401.349 165.25 401.211 165.25V163.25ZM399.461 165C399.461 165.966 400.245 166.75 401.211 166.75V164.75C401.349 164.75 401.461 164.862 401.461 165H399.461ZM401.211 166.75H401.711V164.75H401.211V166.75ZM402.711 166.25V165.75H400.711V166.25H402.711Z" fill="black" mask="url(#path-40-inside-2)"/>
<path d="M395.461 179.75C395.461 175.332 399.043 171.75 403.461 171.75C407.88 171.75 411.462 175.332 411.462 179.75C411.462 184.168 407.88 187.75 403.461 187.75C399.043 187.75 395.461 184.168 395.461 179.75Z" stroke="black"/>
<mask id="path-43-inside-3" fill="white">
<path fill-rule="evenodd" clip-rule="evenodd" d="M406.461 172.045V166.25L405.454 166.166C404.128 166.056 402.795 166.056 401.468 166.166L400.461 166.25V172.045C401.394 171.693 402.405 171.5 403.461 171.5C404.517 171.5 405.528 171.693 406.461 172.045Z"/>
</mask>
<path d="M406.461 166.25H407.461V165.33L406.544 165.253L406.461 166.25ZM406.461 172.045L406.108 172.98L407.461 173.491V172.045H406.461ZM405.454 166.166L405.537 165.17L405.537 165.17L405.454 166.166ZM401.468 166.166L401.385 165.17L401.385 165.17L401.468 166.166ZM400.461 166.25L400.378 165.253L399.461 165.33V166.25H400.461ZM400.461 172.045H399.461V173.491L400.814 172.98L400.461 172.045ZM405.461 166.25V172.045H407.461V166.25H405.461ZM405.371 167.163L406.378 167.247L406.544 165.253L405.537 165.17L405.371 167.163ZM401.551 167.163C402.822 167.057 404.1 167.057 405.371 167.163L405.537 165.17C404.156 165.054 402.767 165.054 401.385 165.17L401.551 167.163ZM400.544 167.247L401.551 167.163L401.385 165.17L400.378 165.253L400.544 167.247ZM401.461 172.045V166.25H399.461V172.045H401.461ZM400.814 172.98C401.636 172.67 402.528 172.5 403.461 172.5V170.5C402.283 170.5 401.152 170.715 400.108 171.109L400.814 172.98ZM403.461 172.5C404.395 172.5 405.287 172.67 406.108 172.98L406.814 171.109C405.77 170.715 404.64 170.5 403.461 170.5V172.5Z" fill="black" mask="url(#path-43-inside-3)"/>
<mask id="path-45-inside-4" fill="white">
<path fill-rule="evenodd" clip-rule="evenodd" d="M409.212 173.74V168.25H406.211V171.955C407.336 172.339 408.355 172.953 409.212 173.74Z"/>
</mask>
<path d="M409.212 168.25H410.212V167.25H409.212V168.25ZM409.212 173.74L408.535 174.476L410.212 176.017V173.74H409.212ZM406.211 168.25V167.25H405.211V168.25H406.211ZM406.211 171.955H405.211V172.67L405.888 172.901L406.211 171.955ZM408.212 168.25V173.74H410.212V168.25H408.212ZM406.211 169.25H409.212V167.25H406.211V169.25ZM407.211 171.955V168.25H405.211V171.955H407.211ZM405.888 172.901C406.879 173.24 407.778 173.781 408.535 174.476L409.888 173.004C408.932 172.125 407.793 171.438 406.535 171.008L405.888 172.901Z" fill="black" mask="url(#path-45-inside-4)"/>
<path d="M531.461 463.625C531.461 461.485 533.196 459.75 535.336 459.75C537.476 459.75 539.211 461.485 539.211 463.625C539.211 465.765 537.476 467.5 535.336 467.5C533.196 467.5 531.461 465.765 531.461 463.625Z" stroke="black"/>
<mask id="path-48-inside-5" fill="white">
<path fill-rule="evenodd" clip-rule="evenodd" d="M543.678 464.5C543.48 466.694 542.424 468.64 540.847 470H544.462C544.953 468.2 544.953 466.3 544.462 464.5H543.678ZM530.076 470H526.211C525.962 468.175 525.962 466.325 526.211 464.5H527.244C527.442 466.694 528.499 468.64 530.076 470Z"/>
</mask>
<path d="M543.678 464.5V463.5H542.764L542.682 464.41L543.678 464.5ZM540.847 470L540.194 469.243L538.156 471H540.847V470ZM544.462 470V471H545.225L545.426 470.263L544.462 470ZM544.462 464.5L545.426 464.237L545.225 463.5H544.462V464.5ZM530.076 470V471H532.766L530.729 469.243L530.076 470ZM526.211 470L525.22 470.135L525.338 471H526.211V470ZM526.211 464.5V463.5H525.338L525.22 464.365L526.211 464.5ZM527.244 464.5L528.24 464.41L528.158 463.5H527.244V464.5ZM542.682 464.41C542.508 466.336 541.581 468.046 540.194 469.243L541.5 470.757C543.266 469.234 544.452 467.052 544.674 464.59L542.682 464.41ZM544.462 469H540.847V471H544.462V469ZM543.497 464.763C543.941 466.391 543.941 468.109 543.497 469.737L545.426 470.263C545.965 468.29 545.965 466.21 545.426 464.237L543.497 464.763ZM543.678 465.5H544.462V463.5H543.678V465.5ZM530.076 469H526.211V471H530.076V469ZM527.202 469.865C526.965 468.13 526.965 466.37 527.202 464.635L525.22 464.365C524.959 466.279 524.959 468.221 525.22 470.135L527.202 469.865ZM526.211 465.5H527.244V463.5H526.211V465.5ZM530.729 469.243C529.341 468.046 528.414 466.336 528.24 464.41L526.248 464.59C526.47 467.052 527.656 469.234 529.422 470.757L530.729 469.243Z" fill="black" mask="url(#path-48-inside-5)"/>
<mask id="path-50-inside-6" fill="white">
<path fill-rule="evenodd" clip-rule="evenodd" d="M533.711 450.25H537.211V449.75H537.711C538.126 449.75 538.461 449.414 538.461 449C538.461 448.586 538.126 448.25 537.711 448.25H537.211V446.75H537.711C538.126 446.75 538.461 446.414 538.461 446C538.461 445.586 538.126 445.25 537.711 445.25H537.211V441.75H533.711V445.25H533.211C532.797 445.25 532.461 445.586 532.461 446C532.461 446.414 532.797 446.75 533.211 446.75H533.711V448.25H533.211C532.797 448.25 532.461 448.586 532.461 449C532.461 449.414 532.797 449.75 533.211 449.75H533.711V450.25Z"/>
</mask>
<path d="M537.211 450.25V451.25H538.211V450.25H537.211ZM533.711 450.25H532.711V451.25H533.711V450.25ZM537.211 449.75V448.75H536.211V449.75H537.211ZM537.211 448.25H536.211V449.25H537.211V448.25ZM537.211 446.75V445.75H536.211V446.75H537.211ZM537.211 445.25H536.211V446.25H537.211V445.25ZM537.211 441.75H538.211V440.75H537.211V441.75ZM533.711 441.75V440.75H532.711V441.75H533.711ZM533.711 445.25V446.25H534.711V445.25H533.711ZM533.711 446.75H534.711V445.75H533.711V446.75ZM533.711 448.25V449.25H534.711V448.25H533.711ZM533.711 449.75H534.711V448.75H533.711V449.75ZM537.211 449.25H533.711V451.25H537.211V449.25ZM536.211 449.75V450.25H538.211V449.75H536.211ZM537.211 450.75H537.711V448.75H537.211V450.75ZM537.711 450.75C538.678 450.75 539.461 449.966 539.461 449H537.461C537.461 448.862 537.573 448.75 537.711 448.75V450.75ZM539.461 449C539.461 448.034 538.678 447.25 537.711 447.25V449.25C537.573 449.25 537.461 449.138 537.461 449H539.461ZM537.711 447.25H537.211V449.25H537.711V447.25ZM536.211 446.75V448.25H538.211V446.75H536.211ZM537.211 447.75H537.711V445.75H537.211V447.75ZM537.711 447.75C538.678 447.75 539.461 446.966 539.461 446H537.461C537.461 445.862 537.573 445.75 537.711 445.75V447.75ZM539.461 446C539.461 445.034 538.678 444.25 537.711 444.25V446.25C537.573 446.25 537.461 446.138 537.461 446H539.461ZM537.711 444.25H537.211V446.25H537.711V444.25ZM536.211 441.75V445.25H538.211V441.75H536.211ZM533.711 442.75H537.211V440.75H533.711V442.75ZM534.711 445.25V441.75H532.711V445.25H534.711ZM533.711 444.25H533.211V446.25H533.711V444.25ZM533.211 444.25C532.245 444.25 531.461 445.034 531.461 446H533.461C533.461 446.138 533.349 446.25 533.211 446.25V444.25ZM531.461 446C531.461 446.966 532.245 447.75 533.211 447.75V445.75C533.349 445.75 533.461 445.862 533.461 446H531.461ZM533.211 447.75H533.711V445.75H533.211V447.75ZM534.711 448.25V446.75H532.711V448.25H534.711ZM533.711 447.25H533.211V449.25H533.711V447.25ZM533.211 447.25C532.245 447.25 531.461 448.034 531.461 449H533.461C533.461 449.138 533.349 449.25 533.211 449.25V447.25ZM531.461 449C531.461 449.966 532.245 450.75 533.211 450.75V448.75C533.349 448.75 533.461 448.862 533.461 449H531.461ZM533.211 450.75H533.711V448.75H533.211V450.75ZM534.711 450.25V449.75H532.711V450.25H534.711Z" fill="black" mask="url(#path-50-inside-6)"/>
<path d="M527.461 463.75C527.461 459.332 531.043 455.75 535.461 455.75C539.88 455.75 543.462 459.332 543.462 463.75C543.462 468.168 539.88 471.75 535.461 471.75C531.043 471.75 527.461 468.168 527.461 463.75Z" stroke="black"/>
<mask id="path-53-inside-7" fill="white">
<path fill-rule="evenodd" clip-rule="evenodd" d="M538.461 456.044V450.25L537.454 450.166C536.128 450.055 534.795 450.055 533.468 450.166L532.461 450.25V456.044C533.394 455.692 534.405 455.5 535.461 455.5C536.517 455.5 537.528 455.692 538.461 456.044Z"/>
</mask>
<path d="M538.461 450.25H539.461V449.33L538.544 449.253L538.461 450.25ZM538.461 456.044L538.108 456.98L539.461 457.491V456.044H538.461ZM537.454 450.166L537.537 449.169L537.537 449.169L537.454 450.166ZM533.468 450.166L533.385 449.169L533.385 449.169L533.468 450.166ZM532.461 450.25L532.378 449.253L531.461 449.33V450.25H532.461ZM532.461 456.044H531.461V457.491L532.814 456.98L532.461 456.044ZM537.461 450.25V456.044H539.461V450.25H537.461ZM537.371 451.162L538.378 451.246L538.544 449.253L537.537 449.169L537.371 451.162ZM533.551 451.162C534.822 451.057 536.1 451.057 537.371 451.162L537.537 449.169C536.156 449.054 534.767 449.054 533.385 449.169L533.551 451.162ZM532.544 451.246L533.551 451.162L533.385 449.169L532.378 449.253L532.544 451.246ZM533.461 456.044V450.25H531.461V456.044H533.461ZM532.814 456.98C533.636 456.67 534.528 456.5 535.461 456.5V454.5C534.283 454.5 533.152 454.715 532.108 455.109L532.814 456.98ZM535.461 456.5C536.395 456.5 537.287 456.67 538.108 456.98L538.814 455.109C537.77 454.715 536.64 454.5 535.461 454.5V456.5Z" fill="black" mask="url(#path-53-inside-7)"/>
<mask id="path-55-inside-8" fill="white">
<path fill-rule="evenodd" clip-rule="evenodd" d="M541.212 457.74V452.25H538.211V455.955C539.336 456.339 540.355 456.953 541.212 457.74Z"/>
</mask>
<path d="M541.212 452.25H542.212V451.25H541.212V452.25ZM541.212 457.74L540.535 458.476L542.212 460.017V457.74H541.212ZM538.211 452.25V451.25H537.211V452.25H538.211ZM538.211 455.955H537.211V456.67L537.888 456.901L538.211 455.955ZM540.212 452.25V457.74H542.212V452.25H540.212ZM538.211 453.25H541.212V451.25H538.211V453.25ZM539.211 455.955V452.25H537.211V455.955H539.211ZM537.888 456.901C538.879 457.24 539.778 457.781 540.535 458.476L541.888 457.004C540.932 456.125 539.793 455.438 538.535 455.008L537.888 456.901Z" fill="black" mask="url(#path-55-inside-8)"/>
<path d="M510.008 132.63L571.5 144.413V484.587L510.008 496.37C440.654 509.659 369.388 509.456 300.111 495.771L243.5 484.589V144.411L300.111 133.229C369.388 119.544 440.654 119.341 510.008 132.63Z" stroke="black"/>
<line x1="243" y1="144.5" x2="572" y2="144.5" stroke="black"/>
<line x1="244" y1="484.5" x2="572" y2="484.5" stroke="black"/>
<line x1="98" y1="224" x2="299" y2="224" stroke="#FF0000" stroke-width="4"/>
<line x1="106" y1="423" x2="316" y2="423" stroke="#655AFA" stroke-width="4"/>
<path d="M297.15 223.358L367.022 265.366" stroke="#FF0000" stroke-width="4"/>
<line y1="-2" x2="85.452" y2="-2" transform="matrix(-0.717341 0.696723 -0.796524 -0.604608 366.854 263)" stroke="#FF0000" stroke-width="4"/>
<path d="M305.128 323L375 365.008" stroke="#655AFA" stroke-width="4"/>
<line y1="-2" x2="85.452" y2="-2" transform="matrix(-0.717341 0.696723 -0.796524 -0.604608 374.832 362.643)" stroke="#655AFA" stroke-width="4"/>
<path d="M472.395 37.3655L475.293 25H759.807L760.68 27.3289C767.595 45.7674 767.374 66.1236 760.06 84.4075L759.823 85H475.281L472.669 74.5529C469.62 62.3555 469.526 49.6065 472.395 37.3655Z" fill="#C4C4C4" stroke="black" stroke-width="2"/>
<circle cx="551" cy="63" r="17.5" fill="white" stroke="black"/>
<circle cx="620" cy="63" r="17.5" fill="white" stroke="black"/>
<circle cx="689" cy="63" r="17.5" fill="white" stroke="black"/>
<path d="M620.359 35.5703C620.359 36.6901 620.161 37.6719 619.766 38.5156C619.37 39.3594 618.802 40.0104 618.062 40.4688C617.328 40.9271 616.484 41.1562 615.531 41.1562C614.589 41.1562 613.747 40.9297 613.008 40.4766C612.268 40.0234 611.695 39.3776 611.289 38.5391C610.883 37.6953 610.677 36.7266 610.672 35.6328V35.0703C610.672 33.9505 610.872 32.9661 611.273 32.1172C611.68 31.263 612.25 30.6094 612.984 30.1562C613.724 29.6979 614.568 29.4688 615.516 29.4688C616.464 29.4688 617.305 29.6979 618.039 30.1562C618.779 30.6094 619.349 31.263 619.75 32.1172C620.156 32.9661 620.359 33.9479 620.359 35.0625V35.5703ZM617.984 35.0547C617.984 33.862 617.771 32.9557 617.344 32.3359C616.917 31.7161 616.307 31.4062 615.516 31.4062C614.729 31.4062 614.122 31.7135 613.695 32.3281C613.268 32.9375 613.052 33.8333 613.047 35.0156V35.5703C613.047 36.7318 613.26 37.6328 613.688 38.2734C614.115 38.9141 614.729 39.2344 615.531 39.2344C616.318 39.2344 616.922 38.9271 617.344 38.3125C617.766 37.6927 617.979 36.7917 617.984 35.6094V35.0547ZM623.992 32.5469L624.062 33.5234C624.667 32.7682 625.477 32.3906 626.492 32.3906C627.388 32.3906 628.055 32.6536 628.492 33.1797C628.93 33.7057 629.154 34.4922 629.164 35.5391V41H626.906V35.5938C626.906 35.1146 626.802 34.7682 626.594 34.5547C626.385 34.3359 626.039 34.2266 625.555 34.2266C624.919 34.2266 624.443 34.4974 624.125 35.0391V41H621.867V32.5469H623.992Z" fill="black"/>
<path d="M550.359 35.5703C550.359 36.6901 550.161 37.6719 549.766 38.5156C549.37 39.3594 548.802 40.0104 548.062 40.4688C547.328 40.9271 546.484 41.1562 545.531 41.1562C544.589 41.1562 543.747 40.9297 543.008 40.4766C542.268 40.0234 541.695 39.3776 541.289 38.5391C540.883 37.6953 540.677 36.7266 540.672 35.6328V35.0703C540.672 33.9505 540.872 32.9661 541.273 32.1172C541.68 31.263 542.25 30.6094 542.984 30.1562C543.724 29.6979 544.568 29.4688 545.516 29.4688C546.464 29.4688 547.305 29.6979 548.039 30.1562C548.779 30.6094 549.349 31.263 549.75 32.1172C550.156 32.9661 550.359 33.9479 550.359 35.0625V35.5703ZM547.984 35.0547C547.984 33.862 547.771 32.9557 547.344 32.3359C546.917 31.7161 546.307 31.4062 545.516 31.4062C544.729 31.4062 544.122 31.7135 543.695 32.3281C543.268 32.9375 543.052 33.8333 543.047 35.0156V35.5703C543.047 36.7318 543.26 37.6328 543.688 38.2734C544.115 38.9141 544.729 39.2344 545.531 39.2344C546.318 39.2344 546.922 38.9271 547.344 38.3125C547.766 37.6927 547.979 36.7917 547.984 35.6094V35.0547ZM552.531 41V34.2031H551.273V32.5469H552.531V31.8281C552.531 30.8802 552.802 30.1458 553.344 29.625C553.891 29.099 554.654 28.8359 555.633 28.8359C555.945 28.8359 556.328 28.888 556.781 28.9922L556.758 30.7422C556.57 30.6953 556.341 30.6719 556.07 30.6719C555.221 30.6719 554.797 31.0703 554.797 31.8672V32.5469H556.477V34.2031H554.797V41H552.531ZM558.266 41V34.2031H557.008V32.5469H558.266V31.8281C558.266 30.8802 558.536 30.1458 559.078 29.625C559.625 29.099 560.388 28.8359 561.367 28.8359C561.68 28.8359 562.062 28.888 562.516 28.9922L562.492 30.7422C562.305 30.6953 562.076 30.6719 561.805 30.6719C560.956 30.6719 560.531 31.0703 560.531 31.8672V32.5469H562.211V34.2031H560.531V41H558.266Z" fill="black"/>
<path d="M678.859 36.3516H674.359V41H672.016V29.625H679.422V31.5234H674.359V34.4609H678.859V36.3516ZM685.266 41C685.161 40.7969 685.086 40.5443 685.039 40.2422C684.492 40.8516 683.781 41.1562 682.906 41.1562C682.078 41.1562 681.391 40.9167 680.844 40.4375C680.302 39.9583 680.031 39.3542 680.031 38.625C680.031 37.7292 680.362 37.0417 681.023 36.5625C681.69 36.0833 682.651 35.8411 683.906 35.8359H684.945V35.3516C684.945 34.9609 684.844 34.6484 684.641 34.4141C684.443 34.1797 684.128 34.0625 683.695 34.0625C683.315 34.0625 683.016 34.1536 682.797 34.3359C682.583 34.5182 682.477 34.7682 682.477 35.0859H680.219C680.219 34.5964 680.37 34.1432 680.672 33.7266C680.974 33.3099 681.401 32.9844 681.953 32.75C682.505 32.5104 683.125 32.3906 683.812 32.3906C684.854 32.3906 685.68 32.6536 686.289 33.1797C686.904 33.7005 687.211 34.4349 687.211 35.3828V39.0469C687.216 39.849 687.328 40.4557 687.547 40.8672V41H685.266ZM683.398 39.4297C683.732 39.4297 684.039 39.3568 684.32 39.2109C684.602 39.0599 684.81 38.8594 684.945 38.6094V37.1562H684.102C682.971 37.1562 682.37 37.5469 682.297 38.3281L682.289 38.4609C682.289 38.7422 682.388 38.974 682.586 39.1562C682.784 39.3385 683.055 39.4297 683.398 39.4297ZM694.008 40.1406C693.451 40.8177 692.68 41.1562 691.695 41.1562C690.789 41.1562 690.096 40.8958 689.617 40.375C689.143 39.8542 688.901 39.0911 688.891 38.0859V32.5469H691.148V38.0078C691.148 38.888 691.549 39.3281 692.352 39.3281C693.117 39.3281 693.643 39.0625 693.93 38.5312V32.5469H696.195V41H694.07L694.008 40.1406ZM700.281 41H698.016V29H700.281V41ZM704.852 30.4688V32.5469H706.297V34.2031H704.852V38.4219C704.852 38.7344 704.911 38.9583 705.031 39.0938C705.151 39.2292 705.38 39.2969 705.719 39.2969C705.969 39.2969 706.19 39.2786 706.383 39.2422V40.9531C705.94 41.0885 705.484 41.1562 705.016 41.1562C703.432 41.1562 702.625 40.3568 702.594 38.7578V34.2031H701.359V32.5469H702.594V30.4688H704.852Z" fill="black"/>
<path d="M608.914 11.0156C608.914 10.5729 608.758 10.2344 608.445 10C608.133 9.76042 607.57 9.51042 606.758 9.25C605.945 8.98438 605.302 8.72396 604.828 8.46875C603.536 7.77083 602.891 6.83073 602.891 5.64844C602.891 5.03385 603.062 4.48698 603.406 4.00781C603.755 3.52344 604.253 3.14583 604.898 2.875C605.549 2.60417 606.279 2.46875 607.086 2.46875C607.898 2.46875 608.622 2.61719 609.258 2.91406C609.893 3.20573 610.385 3.61979 610.734 4.15625C611.089 4.69271 611.266 5.30208 611.266 5.98438H608.922C608.922 5.46354 608.758 5.0599 608.43 4.77344C608.102 4.48177 607.641 4.33594 607.047 4.33594C606.474 4.33594 606.029 4.45833 605.711 4.70312C605.393 4.94271 605.234 5.26042 605.234 5.65625C605.234 6.02604 605.419 6.33594 605.789 6.58594C606.164 6.83594 606.714 7.07031 607.438 7.28906C608.771 7.6901 609.742 8.1875 610.352 8.78125C610.961 9.375 611.266 10.1146 611.266 11C611.266 11.9844 610.893 12.7578 610.148 13.3203C609.404 13.8776 608.401 14.1562 607.141 14.1562C606.266 14.1562 605.469 13.9974 604.75 13.6797C604.031 13.3568 603.482 12.9167 603.102 12.3594C602.727 11.8021 602.539 11.1562 602.539 10.4219H604.891C604.891 11.6771 605.641 12.3047 607.141 12.3047C607.698 12.3047 608.133 12.1927 608.445 11.9688C608.758 11.7396 608.914 11.4219 608.914 11.0156ZM615.414 3.46875V5.54688H616.859V7.20312H615.414V11.4219C615.414 11.7344 615.474 11.9583 615.594 12.0938C615.714 12.2292 615.943 12.2969 616.281 12.2969C616.531 12.2969 616.753 12.2786 616.945 12.2422V13.9531C616.503 14.0885 616.047 14.1562 615.578 14.1562C613.995 14.1562 613.188 13.3568 613.156 11.7578V7.20312H611.922V5.54688H613.156V3.46875H615.414ZM623.016 14C622.911 13.7969 622.836 13.5443 622.789 13.2422C622.242 13.8516 621.531 14.1562 620.656 14.1562C619.828 14.1562 619.141 13.9167 618.594 13.4375C618.052 12.9583 617.781 12.3542 617.781 11.625C617.781 10.7292 618.112 10.0417 618.773 9.5625C619.44 9.08333 620.401 8.84115 621.656 8.83594H622.695V8.35156C622.695 7.96094 622.594 7.64844 622.391 7.41406C622.193 7.17969 621.878 7.0625 621.445 7.0625C621.065 7.0625 620.766 7.15365 620.547 7.33594C620.333 7.51823 620.227 7.76823 620.227 8.08594H617.969C617.969 7.59635 618.12 7.14323 618.422 6.72656C618.724 6.3099 619.151 5.98438 619.703 5.75C620.255 5.51042 620.875 5.39062 621.562 5.39062C622.604 5.39062 623.43 5.65365 624.039 6.17969C624.654 6.70052 624.961 7.4349 624.961 8.38281V12.0469C624.966 12.849 625.078 13.4557 625.297 13.8672V14H623.016ZM621.148 12.4297C621.482 12.4297 621.789 12.3568 622.07 12.2109C622.352 12.0599 622.56 11.8594 622.695 11.6094V10.1562H621.852C620.721 10.1562 620.12 10.5469 620.047 11.3281L620.039 11.4609C620.039 11.7422 620.138 11.974 620.336 12.1562C620.534 12.3385 620.805 12.4297 621.148 12.4297ZM629.398 3.46875V5.54688H630.844V7.20312H629.398V11.4219C629.398 11.7344 629.458 11.9583 629.578 12.0938C629.698 12.2292 629.927 12.2969 630.266 12.2969C630.516 12.2969 630.737 12.2786 630.93 12.2422V13.9531C630.487 14.0885 630.031 14.1562 629.562 14.1562C627.979 14.1562 627.172 13.3568 627.141 11.7578V7.20312H625.906V5.54688H627.141V3.46875H629.398ZM635.992 14.1562C634.753 14.1562 633.742 13.776 632.961 13.0156C632.185 12.2552 631.797 11.2422 631.797 9.97656V9.75781C631.797 8.90885 631.961 8.15104 632.289 7.48438C632.617 6.8125 633.081 6.29688 633.68 5.9375C634.284 5.57292 634.971 5.39062 635.742 5.39062C636.898 5.39062 637.807 5.75521 638.469 6.48438C639.135 7.21354 639.469 8.2474 639.469 9.58594V10.5078H634.086C634.159 11.0599 634.378 11.5026 634.742 11.8359C635.112 12.1693 635.578 12.3359 636.141 12.3359C637.01 12.3359 637.69 12.0208 638.18 11.3906L639.289 12.6328C638.951 13.112 638.492 13.487 637.914 13.7578C637.336 14.0234 636.695 14.1562 635.992 14.1562ZM635.734 7.21875C635.286 7.21875 634.922 7.36979 634.641 7.67188C634.365 7.97396 634.188 8.40625 634.109 8.96875H637.25V8.78906C637.24 8.28906 637.104 7.90365 636.844 7.63281C636.583 7.35677 636.214 7.21875 635.734 7.21875Z" fill="black"/>
<rect x="416" y="160" width="68" height="14" fill="white"/>
<rect x="461" y="435" width="68" height="14" fill="white"/>
<path d="M469.414 443.387H472.109V444H468.66V438.312H469.414V443.387ZM474.605 444.078C474.033 444.078 473.566 443.891 473.207 443.516C472.848 443.138 472.668 442.634 472.668 442.004V441.871C472.668 441.452 472.747 441.078 472.906 440.75C473.068 440.419 473.292 440.161 473.578 439.977C473.867 439.789 474.18 439.695 474.516 439.695C475.065 439.695 475.492 439.876 475.797 440.238C476.102 440.6 476.254 441.118 476.254 441.793V442.094H473.391C473.401 442.51 473.522 442.848 473.754 443.105C473.988 443.361 474.285 443.488 474.645 443.488C474.9 443.488 475.116 443.436 475.293 443.332C475.47 443.228 475.625 443.09 475.758 442.918L476.199 443.262C475.845 443.806 475.314 444.078 474.605 444.078ZM474.516 440.289C474.224 440.289 473.979 440.396 473.781 440.609C473.583 440.82 473.461 441.117 473.414 441.5H475.531V441.445C475.51 441.078 475.411 440.794 475.234 440.594C475.057 440.391 474.818 440.289 474.516 440.289ZM478.434 443.02L479.48 439.773H480.219L478.703 444H478.152L476.621 439.773H477.359L478.434 443.02ZM482.613 444.078C482.04 444.078 481.574 443.891 481.215 443.516C480.855 443.138 480.676 442.634 480.676 442.004V441.871C480.676 441.452 480.755 441.078 480.914 440.75C481.076 440.419 481.299 440.161 481.586 439.977C481.875 439.789 482.188 439.695 482.523 439.695C483.073 439.695 483.5 439.876 483.805 440.238C484.109 440.6 484.262 441.118 484.262 441.793V442.094H481.398C481.409 442.51 481.53 442.848 481.762 443.105C481.996 443.361 482.293 443.488 482.652 443.488C482.908 443.488 483.124 443.436 483.301 443.332C483.478 443.228 483.633 443.09 483.766 442.918L484.207 443.262C483.853 443.806 483.322 444.078 482.613 444.078ZM482.523 440.289C482.232 440.289 481.987 440.396 481.789 440.609C481.591 440.82 481.469 441.117 481.422 441.5H483.539V441.445C483.518 441.078 483.419 440.794 483.242 440.594C483.065 440.391 482.826 440.289 482.523 440.289ZM485.887 444H485.164V438H485.887V444ZM491.492 442.879C491.492 442.684 491.418 442.533 491.27 442.426C491.124 442.316 490.867 442.223 490.5 442.145C490.135 442.066 489.845 441.973 489.629 441.863C489.415 441.754 489.257 441.624 489.152 441.473C489.051 441.322 489 441.142 489 440.934C489 440.587 489.146 440.294 489.438 440.055C489.732 439.815 490.107 439.695 490.562 439.695C491.042 439.695 491.43 439.819 491.727 440.066C492.026 440.314 492.176 440.63 492.176 441.016H491.449C491.449 440.818 491.365 440.647 491.195 440.504C491.029 440.361 490.818 440.289 490.562 440.289C490.299 440.289 490.094 440.346 489.945 440.461C489.797 440.576 489.723 440.725 489.723 440.91C489.723 441.085 489.792 441.216 489.93 441.305C490.068 441.393 490.316 441.478 490.676 441.559C491.038 441.639 491.331 441.736 491.555 441.848C491.779 441.96 491.944 442.095 492.051 442.254C492.16 442.41 492.215 442.602 492.215 442.828C492.215 443.206 492.064 443.509 491.762 443.738C491.46 443.965 491.068 444.078 490.586 444.078C490.247 444.078 489.948 444.018 489.688 443.898C489.427 443.779 489.223 443.612 489.074 443.398C488.928 443.182 488.855 442.949 488.855 442.699H489.578C489.591 442.941 489.688 443.134 489.867 443.277C490.049 443.418 490.289 443.488 490.586 443.488C490.859 443.488 491.078 443.434 491.242 443.324C491.409 443.212 491.492 443.064 491.492 442.879ZM494.91 444.078C494.337 444.078 493.871 443.891 493.512 443.516C493.152 443.138 492.973 442.634 492.973 442.004V441.871C492.973 441.452 493.052 441.078 493.211 440.75C493.372 440.419 493.596 440.161 493.883 439.977C494.172 439.789 494.484 439.695 494.82 439.695C495.37 439.695 495.797 439.876 496.102 440.238C496.406 440.6 496.559 441.118 496.559 441.793V442.094H493.695C493.706 442.51 493.827 442.848 494.059 443.105C494.293 443.361 494.59 443.488 494.949 443.488C495.204 443.488 495.421 443.436 495.598 443.332C495.775 443.228 495.93 443.09 496.062 442.918L496.504 443.262C496.15 443.806 495.618 444.078 494.91 444.078ZM494.82 440.289C494.529 440.289 494.284 440.396 494.086 440.609C493.888 440.82 493.766 441.117 493.719 441.5H495.836V441.445C495.815 441.078 495.716 440.794 495.539 440.594C495.362 440.391 495.122 440.289 494.82 440.289ZM498.082 439.773L498.105 440.305C498.428 439.898 498.85 439.695 499.371 439.695C500.264 439.695 500.715 440.199 500.723 441.207V444H500V441.203C499.997 440.898 499.927 440.673 499.789 440.527C499.654 440.382 499.441 440.309 499.152 440.309C498.918 440.309 498.712 440.371 498.535 440.496C498.358 440.621 498.22 440.785 498.121 440.988V444H497.398V439.773H498.082ZM504.273 442.879C504.273 442.684 504.199 442.533 504.051 442.426C503.905 442.316 503.648 442.223 503.281 442.145C502.917 442.066 502.626 441.973 502.41 441.863C502.197 441.754 502.038 441.624 501.934 441.473C501.832 441.322 501.781 441.142 501.781 440.934C501.781 440.587 501.927 440.294 502.219 440.055C502.513 439.815 502.888 439.695 503.344 439.695C503.823 439.695 504.211 439.819 504.508 440.066C504.807 440.314 504.957 440.63 504.957 441.016H504.23C504.23 440.818 504.146 440.647 503.977 440.504C503.81 440.361 503.599 440.289 503.344 440.289C503.081 440.289 502.875 440.346 502.727 440.461C502.578 440.576 502.504 440.725 502.504 440.91C502.504 441.085 502.573 441.216 502.711 441.305C502.849 441.393 503.098 441.478 503.457 441.559C503.819 441.639 504.112 441.736 504.336 441.848C504.56 441.96 504.725 442.095 504.832 442.254C504.941 442.41 504.996 442.602 504.996 442.828C504.996 443.206 504.845 443.509 504.543 443.738C504.241 443.965 503.849 444.078 503.367 444.078C503.029 444.078 502.729 444.018 502.469 443.898C502.208 443.779 502.004 443.612 501.855 443.398C501.71 443.182 501.637 442.949 501.637 442.699H502.359C502.372 442.941 502.469 443.134 502.648 443.277C502.831 443.418 503.07 443.488 503.367 443.488C503.641 443.488 503.859 443.434 504.023 443.324C504.19 443.212 504.273 443.064 504.273 442.879ZM505.746 441.848C505.746 441.434 505.827 441.061 505.988 440.73C506.152 440.4 506.379 440.145 506.668 439.965C506.96 439.785 507.292 439.695 507.664 439.695C508.24 439.695 508.704 439.895 509.059 440.293C509.415 440.691 509.594 441.221 509.594 441.883V441.934C509.594 442.345 509.514 442.715 509.355 443.043C509.199 443.368 508.974 443.622 508.68 443.805C508.388 443.987 508.052 444.078 507.672 444.078C507.099 444.078 506.634 443.879 506.277 443.48C505.923 443.082 505.746 442.555 505.746 441.898V441.848ZM506.473 441.934C506.473 442.402 506.581 442.779 506.797 443.062C507.016 443.346 507.307 443.488 507.672 443.488C508.039 443.488 508.331 443.345 508.547 443.059C508.763 442.77 508.871 442.366 508.871 441.848C508.871 441.384 508.76 441.009 508.539 440.723C508.32 440.434 508.029 440.289 507.664 440.289C507.307 440.289 507.02 440.431 506.801 440.715C506.582 440.999 506.473 441.405 506.473 441.934ZM512.543 440.422C512.434 440.404 512.315 440.395 512.188 440.395C511.714 440.395 511.392 440.596 511.223 441V444H510.5V439.773H511.203L511.215 440.262C511.452 439.884 511.788 439.695 512.223 439.695C512.363 439.695 512.47 439.714 512.543 439.75V440.422ZM513.188 443.621C513.188 443.496 513.224 443.392 513.297 443.309C513.372 443.225 513.484 443.184 513.633 443.184C513.781 443.184 513.893 443.225 513.969 443.309C514.047 443.392 514.086 443.496 514.086 443.621C514.086 443.741 514.047 443.841 513.969 443.922C513.893 444.003 513.781 444.043 513.633 444.043C513.484 444.043 513.372 444.003 513.297 443.922C513.224 443.841 513.188 443.741 513.188 443.621ZM513.191 440.172C513.191 440.047 513.228 439.943 513.301 439.859C513.376 439.776 513.488 439.734 513.637 439.734C513.785 439.734 513.897 439.776 513.973 439.859C514.051 439.943 514.09 440.047 514.09 440.172C514.09 440.292 514.051 440.392 513.973 440.473C513.897 440.553 513.785 440.594 513.637 440.594C513.488 440.594 513.376 440.553 513.301 440.473C513.228 440.392 513.191 440.292 513.191 440.172ZM518 443.387H520.695V444H517.246V438.312H518V443.387ZM522.305 443.387H525V444H521.551V438.312H522.305V443.387Z" fill="black"/>
<path d="M422.414 168.387H425.109V169H421.66V163.312H422.414V168.387ZM427.605 169.078C427.033 169.078 426.566 168.891 426.207 168.516C425.848 168.138 425.668 167.634 425.668 167.004V166.871C425.668 166.452 425.747 166.078 425.906 165.75C426.068 165.419 426.292 165.161 426.578 164.977C426.867 164.789 427.18 164.695 427.516 164.695C428.065 164.695 428.492 164.876 428.797 165.238C429.102 165.6 429.254 166.118 429.254 166.793V167.094H426.391C426.401 167.51 426.522 167.848 426.754 168.105C426.988 168.361 427.285 168.488 427.645 168.488C427.9 168.488 428.116 168.436 428.293 168.332C428.47 168.228 428.625 168.09 428.758 167.918L429.199 168.262C428.845 168.806 428.314 169.078 427.605 169.078ZM427.516 165.289C427.224 165.289 426.979 165.396 426.781 165.609C426.583 165.82 426.461 166.117 426.414 166.5H428.531V166.445C428.51 166.078 428.411 165.794 428.234 165.594C428.057 165.391 427.818 165.289 427.516 165.289ZM431.434 168.02L432.48 164.773H433.219L431.703 169H431.152L429.621 164.773H430.359L431.434 168.02ZM435.613 169.078C435.04 169.078 434.574 168.891 434.215 168.516C433.855 168.138 433.676 167.634 433.676 167.004V166.871C433.676 166.452 433.755 166.078 433.914 165.75C434.076 165.419 434.299 165.161 434.586 164.977C434.875 164.789 435.188 164.695 435.523 164.695C436.073 164.695 436.5 164.876 436.805 165.238C437.109 165.6 437.262 166.118 437.262 166.793V167.094H434.398C434.409 167.51 434.53 167.848 434.762 168.105C434.996 168.361 435.293 168.488 435.652 168.488C435.908 168.488 436.124 168.436 436.301 168.332C436.478 168.228 436.633 168.09 436.766 167.918L437.207 168.262C436.853 168.806 436.322 169.078 435.613 169.078ZM435.523 165.289C435.232 165.289 434.987 165.396 434.789 165.609C434.591 165.82 434.469 166.117 434.422 166.5H436.539V166.445C436.518 166.078 436.419 165.794 436.242 165.594C436.065 165.391 435.826 165.289 435.523 165.289ZM438.887 169H438.164V163H438.887V169ZM444.492 167.879C444.492 167.684 444.418 167.533 444.27 167.426C444.124 167.316 443.867 167.223 443.5 167.145C443.135 167.066 442.845 166.973 442.629 166.863C442.415 166.754 442.257 166.624 442.152 166.473C442.051 166.322 442 166.142 442 165.934C442 165.587 442.146 165.294 442.438 165.055C442.732 164.815 443.107 164.695 443.562 164.695C444.042 164.695 444.43 164.819 444.727 165.066C445.026 165.314 445.176 165.63 445.176 166.016H444.449C444.449 165.818 444.365 165.647 444.195 165.504C444.029 165.361 443.818 165.289 443.562 165.289C443.299 165.289 443.094 165.346 442.945 165.461C442.797 165.576 442.723 165.725 442.723 165.91C442.723 166.085 442.792 166.216 442.93 166.305C443.068 166.393 443.316 166.478 443.676 166.559C444.038 166.639 444.331 166.736 444.555 166.848C444.779 166.96 444.944 167.095 445.051 167.254C445.16 167.41 445.215 167.602 445.215 167.828C445.215 168.206 445.064 168.509 444.762 168.738C444.46 168.965 444.068 169.078 443.586 169.078C443.247 169.078 442.948 169.018 442.688 168.898C442.427 168.779 442.223 168.612 442.074 168.398C441.928 168.182 441.855 167.949 441.855 167.699H442.578C442.591 167.941 442.688 168.134 442.867 168.277C443.049 168.418 443.289 168.488 443.586 168.488C443.859 168.488 444.078 168.434 444.242 168.324C444.409 168.212 444.492 168.064 444.492 167.879ZM447.91 169.078C447.337 169.078 446.871 168.891 446.512 168.516C446.152 168.138 445.973 167.634 445.973 167.004V166.871C445.973 166.452 446.052 166.078 446.211 165.75C446.372 165.419 446.596 165.161 446.883 164.977C447.172 164.789 447.484 164.695 447.82 164.695C448.37 164.695 448.797 164.876 449.102 165.238C449.406 165.6 449.559 166.118 449.559 166.793V167.094H446.695C446.706 167.51 446.827 167.848 447.059 168.105C447.293 168.361 447.59 168.488 447.949 168.488C448.204 168.488 448.421 168.436 448.598 168.332C448.775 168.228 448.93 168.09 449.062 167.918L449.504 168.262C449.15 168.806 448.618 169.078 447.91 169.078ZM447.82 165.289C447.529 165.289 447.284 165.396 447.086 165.609C446.888 165.82 446.766 166.117 446.719 166.5H448.836V166.445C448.815 166.078 448.716 165.794 448.539 165.594C448.362 165.391 448.122 165.289 447.82 165.289ZM451.082 164.773L451.105 165.305C451.428 164.898 451.85 164.695 452.371 164.695C453.264 164.695 453.715 165.199 453.723 166.207V169H453V166.203C452.997 165.898 452.927 165.673 452.789 165.527C452.654 165.382 452.441 165.309 452.152 165.309C451.918 165.309 451.712 165.371 451.535 165.496C451.358 165.621 451.22 165.785 451.121 165.988V169H450.398V164.773H451.082ZM457.273 167.879C457.273 167.684 457.199 167.533 457.051 167.426C456.905 167.316 456.648 167.223 456.281 167.145C455.917 167.066 455.626 166.973 455.41 166.863C455.197 166.754 455.038 166.624 454.934 166.473C454.832 166.322 454.781 166.142 454.781 165.934C454.781 165.587 454.927 165.294 455.219 165.055C455.513 164.815 455.888 164.695 456.344 164.695C456.823 164.695 457.211 164.819 457.508 165.066C457.807 165.314 457.957 165.63 457.957 166.016H457.23C457.23 165.818 457.146 165.647 456.977 165.504C456.81 165.361 456.599 165.289 456.344 165.289C456.081 165.289 455.875 165.346 455.727 165.461C455.578 165.576 455.504 165.725 455.504 165.91C455.504 166.085 455.573 166.216 455.711 166.305C455.849 166.393 456.098 166.478 456.457 166.559C456.819 166.639 457.112 166.736 457.336 166.848C457.56 166.96 457.725 167.095 457.832 167.254C457.941 167.41 457.996 167.602 457.996 167.828C457.996 168.206 457.845 168.509 457.543 168.738C457.241 168.965 456.849 169.078 456.367 169.078C456.029 169.078 455.729 169.018 455.469 168.898C455.208 168.779 455.004 168.612 454.855 168.398C454.71 168.182 454.637 167.949 454.637 167.699H455.359C455.372 167.941 455.469 168.134 455.648 168.277C455.831 168.418 456.07 168.488 456.367 168.488C456.641 168.488 456.859 168.434 457.023 168.324C457.19 168.212 457.273 168.064 457.273 167.879ZM458.746 166.848C458.746 166.434 458.827 166.061 458.988 165.73C459.152 165.4 459.379 165.145 459.668 164.965C459.96 164.785 460.292 164.695 460.664 164.695C461.24 164.695 461.704 164.895 462.059 165.293C462.415 165.691 462.594 166.221 462.594 166.883V166.934C462.594 167.345 462.514 167.715 462.355 168.043C462.199 168.368 461.974 168.622 461.68 168.805C461.388 168.987 461.052 169.078 460.672 169.078C460.099 169.078 459.634 168.879 459.277 168.48C458.923 168.082 458.746 167.555 458.746 166.898V166.848ZM459.473 166.934C459.473 167.402 459.581 167.779 459.797 168.062C460.016 168.346 460.307 168.488 460.672 168.488C461.039 168.488 461.331 168.345 461.547 168.059C461.763 167.77 461.871 167.366 461.871 166.848C461.871 166.384 461.76 166.009 461.539 165.723C461.32 165.434 461.029 165.289 460.664 165.289C460.307 165.289 460.02 165.431 459.801 165.715C459.582 165.999 459.473 166.405 459.473 166.934ZM465.543 165.422C465.434 165.404 465.315 165.395 465.188 165.395C464.714 165.395 464.392 165.596 464.223 166V169H463.5V164.773H464.203L464.215 165.262C464.452 164.884 464.788 164.695 465.223 164.695C465.363 164.695 465.47 164.714 465.543 164.75V165.422ZM466.188 168.621C466.188 168.496 466.224 168.392 466.297 168.309C466.372 168.225 466.484 168.184 466.633 168.184C466.781 168.184 466.893 168.225 466.969 168.309C467.047 168.392 467.086 168.496 467.086 168.621C467.086 168.741 467.047 168.841 466.969 168.922C466.893 169.003 466.781 169.043 466.633 169.043C466.484 169.043 466.372 169.003 466.297 168.922C466.224 168.841 466.188 168.741 466.188 168.621ZM466.191 165.172C466.191 165.047 466.228 164.943 466.301 164.859C466.376 164.776 466.488 164.734 466.637 164.734C466.785 164.734 466.897 164.776 466.973 164.859C467.051 164.943 467.09 165.047 467.09 165.172C467.09 165.292 467.051 165.392 466.973 165.473C466.897 165.553 466.785 165.594 466.637 165.594C466.488 165.594 466.376 165.553 466.301 165.473C466.228 165.392 466.191 165.292 466.191 165.172ZM474.617 169H473.863V166.371H470.996V169H470.246V163.312H470.996V165.758H473.863V163.312H474.617V169ZM480.32 169H479.566V166.371H476.699V169H475.949V163.312H476.699V165.758H479.566V163.312H480.32V169Z" fill="black"/>
</g>
<defs>
<clipPath id="clip0">
<rect width="820" height="596" fill="white"/>
</clipPath>
</defs>
</svg>
