<svg width="716" height="696" viewBox="0 0 716 696" fill="none" xmlns="http://www.w3.org/2000/svg">
<rect width="716" height="696" fill="white"/>
<path d="M14 17H79L105 30L79 43H14V17Z" fill="#655AFA"/>
<path d="M33.6875 31.5106C33.5469 32.7137 33.1016 33.6434 32.3516 34.2997C31.6068 34.9507 30.6146 35.2762 29.375 35.2762C28.0312 35.2762 26.9531 34.7945 26.1406 33.8309C25.3333 32.8674 24.9297 31.5783 24.9297 29.9637V28.87C24.9297 27.8127 25.1172 26.883 25.4922 26.0809C25.8724 25.2788 26.4089 24.6643 27.1016 24.2372C27.7943 23.8049 28.5964 23.5887 29.5078 23.5887C30.7161 23.5887 31.6849 23.9273 32.4141 24.6044C33.1432 25.2762 33.5677 26.2085 33.6875 27.4012H32.1797C32.0495 26.495 31.7656 25.8387 31.3281 25.4325C30.8958 25.0262 30.2891 24.8231 29.5078 24.8231C28.5495 24.8231 27.7969 25.1773 27.25 25.8856C26.7083 26.594 26.4375 27.6018 26.4375 28.9091V30.0106C26.4375 31.245 26.6953 32.2268 27.2109 32.9559C27.7266 33.6851 28.4479 34.0497 29.375 34.0497C30.2083 34.0497 30.8464 33.8622 31.2891 33.4872C31.737 33.107 32.0339 32.4481 32.1797 31.5106H33.6875ZM38.1953 31.5341L38.4141 33.0341L38.7344 31.6825L40.9844 23.745H42.25L44.4453 31.6825L44.7578 33.0575L45 31.5262L46.7656 23.745H48.2734L45.5156 35.12H44.1484L41.8047 26.8309L41.625 25.9637L41.4453 26.8309L39.0156 35.12H37.6484L34.8984 23.745H36.3984L38.1953 31.5341Z" fill="white"/>
<line x1="101" y1="30" x2="303" y2="30" stroke="#655AFA" stroke-width="4"/>
<line x1="301" y1="28" x2="301" y2="93" stroke="#655AFA" stroke-width="4"/>
<line x1="301" y1="149" x2="301" y2="206" stroke="#655AFA" stroke-width="4"/>
<circle cx="301" cy="121" r="28" fill="#C4C4C4"/>
<path d="M301 149L322.939 123H279.061L301 149Z" fill="black"/>
<path d="M314.115 80.6602V84H312.99V75.4688H316.137C317.07 75.4688 317.801 75.707 318.328 76.1836C318.859 76.6602 319.125 77.291 319.125 78.0762C319.125 78.9043 318.865 79.543 318.346 79.9922C317.83 80.4375 317.09 80.6602 316.125 80.6602H314.115ZM314.115 79.7402H316.137C316.738 79.7402 317.199 79.5996 317.52 79.3184C317.84 79.0332 318 78.623 318 78.0879C318 77.5801 317.84 77.1738 317.52 76.8691C317.199 76.5645 316.76 76.4062 316.201 76.3945H314.115V79.7402ZM324.305 83.373C323.883 83.8691 323.264 84.1172 322.447 84.1172C321.771 84.1172 321.256 83.9219 320.9 83.5312C320.549 83.1367 320.371 82.5547 320.367 81.7852V77.6602H321.451V81.7559C321.451 82.7168 321.842 83.1973 322.623 83.1973C323.451 83.1973 324.002 82.8887 324.275 82.2715V77.6602H325.359V84H324.328L324.305 83.373ZM328.031 77.6602L328.061 78.3633C328.525 77.8164 329.152 77.543 329.941 77.543C330.828 77.543 331.432 77.8828 331.752 78.5625C331.963 78.2578 332.236 78.0117 332.572 77.8242C332.912 77.6367 333.312 77.543 333.773 77.543C335.164 77.543 335.871 78.2793 335.895 79.752V84H334.811V79.8164C334.811 79.3633 334.707 79.0254 334.5 78.8027C334.293 78.5762 333.945 78.4629 333.457 78.4629C333.055 78.4629 332.721 78.584 332.455 78.8262C332.189 79.0645 332.035 79.3867 331.992 79.793V84H330.902V79.8457C330.902 78.9238 330.451 78.4629 329.549 78.4629C328.838 78.4629 328.352 78.7656 328.09 79.3711V84H327.006V77.6602H328.031ZM342.891 80.9004C342.891 81.8652 342.67 82.6426 342.229 83.2324C341.787 83.8223 341.189 84.1172 340.436 84.1172C339.666 84.1172 339.061 83.873 338.619 83.3848V86.4375H337.535V77.6602H338.525L338.578 78.3633C339.02 77.8164 339.633 77.543 340.418 77.543C341.18 77.543 341.781 77.8301 342.223 78.4043C342.668 78.9785 342.891 79.7773 342.891 80.8008V80.9004ZM341.807 80.7773C341.807 80.0625 341.654 79.498 341.35 79.084C341.045 78.6699 340.627 78.4629 340.096 78.4629C339.439 78.4629 338.947 78.7539 338.619 79.3359V82.3652C338.943 82.9434 339.439 83.2324 340.107 83.2324C340.627 83.2324 341.039 83.0273 341.344 82.6172C341.652 82.2031 341.807 81.5898 341.807 80.7773Z" fill="black"/>
<rect x="182" y="239" width="162" height="321" fill="#7F7F7F"/>
<line x1="347" y1="587" x2="347" y2="661" stroke="#FF0000" stroke-width="4"/>
<line x1="345" y1="662" x2="611" y2="662" stroke="#FF0000" stroke-width="4"/>
<path d="M611 651H676L702 663.5L676 676H611V651Z" fill="#FF0000"/>
<path d="M631.273 669H628.93V664.125H624.359V669H622.016V657.625H624.359V662.234H628.93V657.625H631.273V669ZM642.188 665.719L643.719 657.625H646.055L643.531 669H641.172L639.32 661.391L637.469 669H635.109L632.586 657.625H634.922L636.461 665.703L638.336 657.625H640.32L642.188 665.719Z" fill="white"/>
<rect x="406" y="629.5" width="17" height="17" fill="#7F7F7F" stroke="black"/>
<line x1="414" y1="645.5" x2="414" y2="662" stroke="black" stroke-width="2"/>
<path d="M390.25 648.577L413.5 662L390.25 675.423V648.577Z" fill="#7F7F7F" stroke="black"/>
<path d="M437.75 648.577L414.5 662L437.75 675.423V648.577Z" fill="#7F7F7F" stroke="black"/>
<path d="M433.814 633.506L436.252 626.469H437.482L434.318 635H433.322L430.164 626.469H431.389L433.814 633.506ZM442.105 635C442.043 634.875 441.992 634.652 441.953 634.332C441.449 634.855 440.848 635.117 440.148 635.117C439.523 635.117 439.01 634.941 438.607 634.59C438.209 634.234 438.01 633.785 438.01 633.242C438.01 632.582 438.26 632.07 438.76 631.707C439.264 631.34 439.971 631.156 440.881 631.156H441.936V630.658C441.936 630.279 441.822 629.979 441.596 629.756C441.369 629.529 441.035 629.416 440.594 629.416C440.207 629.416 439.883 629.514 439.621 629.709C439.359 629.904 439.229 630.141 439.229 630.418H438.139C438.139 630.102 438.25 629.797 438.473 629.504C438.699 629.207 439.004 628.973 439.387 628.801C439.773 628.629 440.197 628.543 440.658 628.543C441.389 628.543 441.961 628.727 442.375 629.094C442.789 629.457 443.004 629.959 443.02 630.6V633.518C443.02 634.1 443.094 634.562 443.242 634.906V635H442.105ZM440.307 634.174C440.646 634.174 440.969 634.086 441.273 633.91C441.578 633.734 441.799 633.506 441.936 633.225V631.924H441.086C439.758 631.924 439.094 632.312 439.094 633.09C439.094 633.43 439.207 633.695 439.434 633.887C439.66 634.078 439.951 634.174 440.307 634.174ZM445.896 635H444.812V626H445.896V635ZM449.729 633.529L451.299 628.66H452.406L450.133 635H449.307L447.01 628.66H448.117L449.729 633.529ZM455.998 635.117C455.139 635.117 454.439 634.836 453.9 634.273C453.361 633.707 453.092 632.951 453.092 632.006V631.807C453.092 631.178 453.211 630.617 453.449 630.125C453.691 629.629 454.027 629.242 454.457 628.965C454.891 628.684 455.359 628.543 455.863 628.543C456.688 628.543 457.328 628.814 457.785 629.357C458.242 629.9 458.471 630.678 458.471 631.689V632.141H454.176C454.191 632.766 454.373 633.271 454.721 633.658C455.072 634.041 455.518 634.232 456.057 634.232C456.439 634.232 456.764 634.154 457.029 633.998C457.295 633.842 457.527 633.635 457.727 633.377L458.389 633.893C457.857 634.709 457.061 635.117 455.998 635.117ZM455.863 629.434C455.426 629.434 455.059 629.594 454.762 629.914C454.465 630.23 454.281 630.676 454.211 631.25H457.387V631.168C457.355 630.617 457.207 630.191 456.941 629.891C456.676 629.586 456.316 629.434 455.863 629.434Z" fill="black"/>
<rect x="182" y="370" width="162" height="190" fill="#655AFA"/>
<path d="M388.327 244.592H384.214V256H382.535V244.592H378.431V243.203H388.327V244.592ZM394.84 256C394.746 255.812 394.67 255.479 394.611 254.998C393.855 255.783 392.953 256.176 391.904 256.176C390.967 256.176 390.196 255.912 389.593 255.385C388.995 254.852 388.696 254.178 388.696 253.363C388.696 252.373 389.071 251.605 389.821 251.061C390.577 250.51 391.638 250.234 393.003 250.234H394.585V249.487C394.585 248.919 394.415 248.468 394.075 248.134C393.735 247.794 393.234 247.624 392.572 247.624C391.992 247.624 391.506 247.771 391.113 248.063C390.721 248.356 390.524 248.711 390.524 249.127H388.89C388.89 248.652 389.057 248.195 389.391 247.756C389.73 247.311 390.188 246.959 390.762 246.701C391.342 246.443 391.978 246.314 392.669 246.314C393.765 246.314 394.623 246.59 395.244 247.141C395.865 247.686 396.188 248.438 396.211 249.399V253.776C396.211 254.649 396.322 255.344 396.545 255.859V256H394.84ZM392.142 254.761C392.651 254.761 393.135 254.629 393.592 254.365C394.049 254.102 394.38 253.759 394.585 253.337V251.386H393.311C391.318 251.386 390.322 251.969 390.322 253.135C390.322 253.645 390.492 254.043 390.832 254.33C391.172 254.617 391.608 254.761 392.142 254.761ZM400.298 246.49L400.351 247.686C401.077 246.771 402.026 246.314 403.198 246.314C405.208 246.314 406.222 247.448 406.239 249.716V256H404.613V249.707C404.607 249.021 404.449 248.515 404.139 248.187C403.834 247.858 403.356 247.694 402.706 247.694C402.179 247.694 401.716 247.835 401.317 248.116C400.919 248.397 400.608 248.767 400.386 249.224V256H398.76V246.49H400.298ZM411.346 251.597L410.326 252.66V256H408.7V242.5H410.326V250.665L411.196 249.619L414.158 246.49H416.136L412.436 250.463L416.566 256H414.659L411.346 251.597Z" fill="black"/>
<path fill-rule="evenodd" clip-rule="evenodd" d="M374.172 395.804V421.239C371.976 422.585 370.637 424.974 370.634 427.549C370.634 431.641 373.951 434.959 378.043 434.958C382.135 434.959 385.452 431.641 385.452 427.549C385.449 424.975 384.109 422.588 381.915 421.243V395.804H374.172Z" fill="#C0392B"/>
<path fill-rule="evenodd" clip-rule="evenodd" d="M378.043 365.76C375.905 365.76 374.172 367.494 374.172 369.632V421.239C373.092 421.901 372.2 422.828 371.581 423.933C370.961 425.038 370.635 426.283 370.634 427.549C370.634 428.522 370.826 429.486 371.198 430.385C371.57 431.284 372.116 432.1 372.804 432.788C373.492 433.476 374.309 434.022 375.208 434.394C376.107 434.767 377.07 434.958 378.043 434.958C379.016 434.958 379.98 434.767 380.879 434.394C381.778 434.022 382.594 433.476 383.282 432.788C383.97 432.1 384.516 431.284 384.888 430.385C385.261 429.486 385.452 428.522 385.452 427.549C385.451 426.283 385.124 425.039 384.505 423.935C383.886 422.831 382.994 421.904 381.915 421.243V369.632C381.915 367.494 380.181 365.76 378.043 365.76V365.76Z" stroke="black" stroke-width="0.356871" stroke-linecap="round" stroke-linejoin="round"/>
<path d="M384.493 381.781H388.412" stroke="black" stroke-width="0.375685"/>
<path d="M384.493 401.467H388.412" stroke="black" stroke-width="0.375685"/>
<path d="M384.493 386.702H388.412" stroke="black" stroke-width="0.375685"/>
<path d="M384.493 376.859H388.412" stroke="black" stroke-width="0.375685"/>
<path d="M384.493 396.545H388.412" stroke="black" stroke-width="0.375685"/>
<path d="M384.493 406.389H388.412" stroke="black" stroke-width="0.375685"/>
<path d="M384.493 411.31H391.324" stroke="black" stroke-width="0.375685"/>
<path d="M384.493 391.624H391.324" stroke="black" stroke-width="0.375685"/>
<path d="M384.493 371.937H391.324" stroke="black" stroke-width="0.375685"/>
<path d="M373.075 427.559C373.522 429.805 374.832 431.525 377.218 432.168" stroke="white" stroke-width="0.277383" stroke-linecap="round" stroke-linejoin="round"/>
<path d="M199.461 286.625C199.461 284.485 201.196 282.75 203.336 282.75C205.476 282.75 207.211 284.485 207.211 286.625C207.211 288.765 205.476 290.5 203.336 290.5C201.196 290.5 199.461 288.765 199.461 286.625Z" stroke="black"/>
<mask id="path-34-inside-1" fill="white">
<path fill-rule="evenodd" clip-rule="evenodd" d="M211.678 287.5C211.48 289.694 210.424 291.64 208.847 293H212.462C212.953 291.2 212.953 289.3 212.462 287.5H211.678ZM198.076 293H194.211C193.962 291.175 193.962 289.325 194.211 287.5H195.244C195.442 289.694 196.499 291.64 198.076 293Z"/>
</mask>
<path d="M211.678 287.5V286.5H210.764L210.682 287.41L211.678 287.5ZM208.847 293L208.194 292.243L206.156 294H208.847V293ZM212.462 293V294H213.225L213.426 293.263L212.462 293ZM212.462 287.5L213.426 287.237L213.225 286.5H212.462V287.5ZM198.076 293V294H200.766L198.729 292.243L198.076 293ZM194.211 293L193.22 293.135L193.338 294H194.211V293ZM194.211 287.5V286.5H193.338L193.22 287.365L194.211 287.5ZM195.244 287.5L196.24 287.41L196.158 286.5H195.244V287.5ZM210.682 287.41C210.508 289.336 209.581 291.046 208.194 292.243L209.5 293.757C211.266 292.234 212.452 290.052 212.674 287.59L210.682 287.41ZM212.462 292H208.847V294H212.462V292ZM211.497 287.763C211.941 289.391 211.941 291.109 211.497 292.737L213.426 293.263C213.964 291.29 213.964 289.21 213.426 287.237L211.497 287.763ZM211.678 288.5H212.462V286.5H211.678V288.5ZM198.076 292H194.211V294H198.076V292ZM195.202 292.865C194.965 291.13 194.965 289.37 195.202 287.635L193.22 287.365C192.959 289.279 192.959 291.221 193.22 293.135L195.202 292.865ZM194.211 288.5H195.244V286.5H194.211V288.5ZM198.729 292.243C197.341 291.046 196.414 289.336 196.24 287.41L194.248 287.59C194.47 290.052 195.656 292.234 197.422 293.757L198.729 292.243Z" fill="black" mask="url(#path-34-inside-1)"/>
<mask id="path-36-inside-2" fill="white">
<path fill-rule="evenodd" clip-rule="evenodd" d="M205.211 273.25H201.711V272.75H201.211C200.797 272.75 200.461 272.414 200.461 272C200.461 271.586 200.797 271.25 201.211 271.25H201.711V269.75H201.211C200.797 269.75 200.461 269.414 200.461 269C200.461 268.586 200.797 268.25 201.211 268.25H201.711V264.75H202.461V243C202.461 242.448 202.909 242 203.461 242C204.014 242 204.461 242.448 204.461 243V264.75H205.211V268.25H205.711C206.126 268.25 206.461 268.586 206.461 269C206.461 269.414 206.126 269.75 205.711 269.75H205.211V271.25H205.711C206.126 271.25 206.461 271.586 206.461 272C206.461 272.414 206.126 272.75 205.711 272.75H205.211V273.25Z"/>
</mask>
<path d="M201.711 273.25H200.711V274.25H201.711V273.25ZM205.211 273.25V274.25H206.211V273.25H205.211ZM201.711 272.75H202.711V271.75H201.711V272.75ZM201.711 271.25V272.25H202.711V271.25H201.711ZM201.711 269.75H202.711V268.75H201.711V269.75ZM201.711 268.25V269.25H202.711V268.25H201.711ZM201.711 264.75V263.75H200.711V264.75H201.711ZM202.461 264.75V265.75H203.461V264.75H202.461ZM204.461 264.75H203.461V265.75H204.461V264.75ZM205.211 264.75H206.211V263.75H205.211V264.75ZM205.211 268.25H204.211V269.25H205.211V268.25ZM205.211 269.75V268.75H204.211V269.75H205.211ZM205.211 271.25H204.211V272.25H205.211V271.25ZM205.211 272.75V271.75H204.211V272.75H205.211ZM201.711 274.25H205.211V272.25H201.711V274.25ZM200.711 272.75V273.25H202.711V272.75H200.711ZM201.211 273.75H201.711V271.75H201.211V273.75ZM199.461 272C199.461 272.966 200.245 273.75 201.211 273.75V271.75C201.349 271.75 201.461 271.862 201.461 272H199.461ZM201.211 270.25C200.245 270.25 199.461 271.034 199.461 272H201.461C201.461 272.138 201.349 272.25 201.211 272.25V270.25ZM201.711 270.25H201.211V272.25H201.711V270.25ZM200.711 269.75V271.25H202.711V269.75H200.711ZM201.211 270.75H201.711V268.75H201.211V270.75ZM199.461 269C199.461 269.966 200.245 270.75 201.211 270.75V268.75C201.349 268.75 201.461 268.862 201.461 269H199.461ZM201.211 267.25C200.245 267.25 199.461 268.034 199.461 269H201.461C201.461 269.138 201.349 269.25 201.211 269.25V267.25ZM201.711 267.25H201.211V269.25H201.711V267.25ZM200.711 264.75V268.25H202.711V264.75H200.711ZM202.461 263.75H201.711V265.75H202.461V263.75ZM203.461 264.75V243H201.461V264.75H203.461ZM203.461 243L203.461 243V241C202.357 241 201.461 241.895 201.461 243H203.461ZM203.461 243L203.461 243H205.461C205.461 241.895 204.566 241 203.461 241V243ZM203.461 243V264.75H205.461V243H203.461ZM205.211 263.75H204.461V265.75H205.211V263.75ZM206.211 268.25V264.75H204.211V268.25H206.211ZM205.711 267.25H205.211V269.25H205.711V267.25ZM207.461 269C207.461 268.034 206.678 267.25 205.711 267.25V269.25C205.573 269.25 205.461 269.138 205.461 269H207.461ZM205.711 270.75C206.678 270.75 207.461 269.966 207.461 269H205.461C205.461 268.862 205.573 268.75 205.711 268.75V270.75ZM205.211 270.75H205.711V268.75H205.211V270.75ZM206.211 271.25V269.75H204.211V271.25H206.211ZM205.711 270.25H205.211V272.25H205.711V270.25ZM207.461 272C207.461 271.034 206.678 270.25 205.711 270.25V272.25C205.573 272.25 205.461 272.138 205.461 272H207.461ZM205.711 273.75C206.678 273.75 207.461 272.966 207.461 272H205.461C205.461 271.862 205.573 271.75 205.711 271.75V273.75ZM205.211 273.75H205.711V271.75H205.211V273.75ZM206.211 273.25V272.75H204.211V273.25H206.211Z" fill="black" mask="url(#path-36-inside-2)"/>
<path d="M195.461 286.75C195.461 282.332 199.043 278.75 203.461 278.75C207.88 278.75 211.462 282.332 211.462 286.75C211.462 291.168 207.88 294.75 203.461 294.75C199.043 294.75 195.461 291.168 195.461 286.75Z" stroke="black"/>
<mask id="path-39-inside-3" fill="white">
<path fill-rule="evenodd" clip-rule="evenodd" d="M206.461 279.045V273.25L205.454 273.166C204.128 273.056 202.795 273.056 201.468 273.166L200.461 273.25V279.045C201.394 278.693 202.405 278.5 203.461 278.5C204.517 278.5 205.528 278.693 206.461 279.045Z"/>
</mask>
<path d="M206.461 273.25H207.461V272.33L206.544 272.253L206.461 273.25ZM206.461 279.045L206.108 279.98L207.461 280.491V279.045H206.461ZM205.454 273.166L205.537 272.17H205.537L205.454 273.166ZM201.468 273.166L201.385 272.17L201.468 273.166ZM200.461 273.25L200.378 272.253L199.461 272.33V273.25H200.461ZM200.461 279.045H199.461V280.491L200.814 279.98L200.461 279.045ZM205.461 273.25V279.045H207.461V273.25H205.461ZM205.371 274.163L206.378 274.247L206.544 272.253L205.537 272.17L205.371 274.163ZM201.551 274.163C202.822 274.057 204.1 274.057 205.371 274.163L205.537 272.17C204.156 272.054 202.767 272.054 201.385 272.17L201.551 274.163ZM200.544 274.247L201.551 274.163L201.385 272.17L200.378 272.253L200.544 274.247ZM201.461 279.045V273.25H199.461V279.045H201.461ZM200.814 279.98C201.636 279.67 202.528 279.5 203.461 279.5V277.5C202.283 277.5 201.152 277.715 200.108 278.109L200.814 279.98ZM203.461 279.5C204.395 279.5 205.287 279.67 206.108 279.98L206.814 278.109C205.77 277.715 204.64 277.5 203.461 277.5V279.5Z" fill="black" mask="url(#path-39-inside-3)"/>
<mask id="path-41-inside-4" fill="white">
<path fill-rule="evenodd" clip-rule="evenodd" d="M209.212 280.74V275.25H206.211V278.955C207.336 279.339 208.355 279.953 209.212 280.74Z"/>
</mask>
<path d="M209.212 275.25H210.212V274.25H209.212V275.25ZM209.212 280.74L208.535 281.476L210.212 283.017V280.74H209.212ZM206.211 275.25V274.25H205.211V275.25H206.211ZM206.211 278.955H205.211V279.67L205.888 279.901L206.211 278.955ZM208.212 275.25V280.74H210.212V275.25H208.212ZM206.211 276.25H209.212V274.25H206.211V276.25ZM207.211 278.955V275.25H205.211V278.955H207.211ZM205.888 279.901C206.879 280.24 207.778 280.781 208.535 281.476L209.888 280.004C208.932 279.125 207.793 278.438 206.535 278.008L205.888 279.901Z" fill="black" mask="url(#path-41-inside-4)"/>
<rect x="208" y="243" width="13" height="9" fill="white"/>
<path d="M299.461 520.625C299.461 518.485 301.196 516.75 303.336 516.75C305.476 516.75 307.211 518.485 307.211 520.625C307.211 522.765 305.476 524.5 303.336 524.5C301.196 524.5 299.461 522.765 299.461 520.625Z" stroke="black"/>
<mask id="path-45-inside-5" fill="white">
<path fill-rule="evenodd" clip-rule="evenodd" d="M311.678 521.5C311.48 523.694 310.424 525.64 308.847 527H312.462C312.953 525.2 312.953 523.3 312.462 521.5H311.678ZM298.076 527H294.211C293.962 525.175 293.962 523.325 294.211 521.5H295.244C295.442 523.694 296.499 525.64 298.076 527Z"/>
</mask>
<path d="M311.678 521.5V520.5H310.764L310.682 521.41L311.678 521.5ZM308.847 527L308.194 526.243L306.156 528H308.847V527ZM312.462 527V528H313.225L313.426 527.263L312.462 527ZM312.462 521.5L313.426 521.237L313.225 520.5H312.462V521.5ZM298.076 527V528H300.766L298.729 526.243L298.076 527ZM294.211 527L293.22 527.135L293.338 528H294.211V527ZM294.211 521.5V520.5H293.338L293.22 521.365L294.211 521.5ZM295.244 521.5L296.24 521.41L296.158 520.5H295.244V521.5ZM310.682 521.41C310.508 523.336 309.581 525.046 308.194 526.243L309.5 527.757C311.266 526.234 312.452 524.052 312.674 521.59L310.682 521.41ZM312.462 526H308.847V528H312.462V526ZM311.497 521.763C311.941 523.391 311.941 525.109 311.497 526.737L313.426 527.263C313.964 525.29 313.964 523.21 313.426 521.237L311.497 521.763ZM311.678 522.5H312.462V520.5H311.678V522.5ZM298.076 526H294.211V528H298.076V526ZM295.202 526.865C294.965 525.13 294.965 523.37 295.202 521.635L293.22 521.365C292.959 523.279 292.959 525.221 293.22 527.135L295.202 526.865ZM294.211 522.5H295.244V520.5H294.211V522.5ZM298.729 526.243C297.341 525.046 296.414 523.336 296.24 521.41L294.248 521.59C294.47 524.052 295.656 526.234 297.422 527.757L298.729 526.243Z" fill="black" mask="url(#path-45-inside-5)"/>
<mask id="path-47-inside-6" fill="white">
<path fill-rule="evenodd" clip-rule="evenodd" d="M305.211 507.25H301.711V506.75H301.211C300.797 506.75 300.461 506.414 300.461 506C300.461 505.586 300.797 505.25 301.211 505.25H301.711V503.75H301.211C300.797 503.75 300.461 503.414 300.461 503C300.461 502.586 300.797 502.25 301.211 502.25H301.711V498.75H302.461V477C302.461 476.448 302.909 476 303.461 476C304.014 476 304.461 476.448 304.461 477V498.75H305.211V502.25H305.711C306.126 502.25 306.461 502.586 306.461 503C306.461 503.414 306.126 503.75 305.711 503.75H305.211V505.25H305.711C306.126 505.25 306.461 505.586 306.461 506C306.461 506.414 306.126 506.75 305.711 506.75H305.211V507.25Z"/>
</mask>
<path d="M301.711 507.25H300.711V508.25H301.711V507.25ZM305.211 507.25V508.25H306.211V507.25H305.211ZM301.711 506.75H302.711V505.75H301.711V506.75ZM301.711 505.25V506.25H302.711V505.25H301.711ZM301.711 503.75H302.711V502.75H301.711V503.75ZM301.711 502.25V503.25H302.711V502.25H301.711ZM301.711 498.75V497.75H300.711V498.75H301.711ZM302.461 498.75V499.75H303.461V498.75H302.461ZM304.461 498.75H303.461V499.75H304.461V498.75ZM305.211 498.75H306.211V497.75H305.211V498.75ZM305.211 502.25H304.211V503.25H305.211V502.25ZM305.211 503.75V502.75H304.211V503.75H305.211ZM305.211 505.25H304.211V506.25H305.211V505.25ZM305.211 506.75V505.75H304.211V506.75H305.211ZM301.711 508.25H305.211V506.25H301.711V508.25ZM300.711 506.75V507.25H302.711V506.75H300.711ZM301.211 507.75H301.711V505.75H301.211V507.75ZM299.461 506C299.461 506.966 300.245 507.75 301.211 507.75V505.75C301.349 505.75 301.461 505.862 301.461 506H299.461ZM301.211 504.25C300.245 504.25 299.461 505.034 299.461 506H301.461C301.461 506.138 301.349 506.25 301.211 506.25V504.25ZM301.711 504.25H301.211V506.25H301.711V504.25ZM300.711 503.75V505.25H302.711V503.75H300.711ZM301.211 504.75H301.711V502.75H301.211V504.75ZM299.461 503C299.461 503.966 300.245 504.75 301.211 504.75V502.75C301.349 502.75 301.461 502.862 301.461 503H299.461ZM301.211 501.25C300.245 501.25 299.461 502.034 299.461 503H301.461C301.461 503.138 301.349 503.25 301.211 503.25V501.25ZM301.711 501.25H301.211V503.25H301.711V501.25ZM300.711 498.75V502.25H302.711V498.75H300.711ZM302.461 497.75H301.711V499.75H302.461V497.75ZM303.461 498.75V477H301.461V498.75H303.461ZM303.461 477L303.461 477V475C302.357 475 301.461 475.895 301.461 477H303.461ZM303.461 477L303.461 477H305.461C305.461 475.895 304.566 475 303.461 475V477ZM303.461 477V498.75H305.461V477H303.461ZM305.211 497.75H304.461V499.75H305.211V497.75ZM306.211 502.25V498.75H304.211V502.25H306.211ZM305.711 501.25H305.211V503.25H305.711V501.25ZM307.461 503C307.461 502.034 306.678 501.25 305.711 501.25V503.25C305.573 503.25 305.461 503.138 305.461 503H307.461ZM305.711 504.75C306.678 504.75 307.461 503.966 307.461 503H305.461C305.461 502.862 305.573 502.75 305.711 502.75V504.75ZM305.211 504.75H305.711V502.75H305.211V504.75ZM306.211 505.25V503.75H304.211V505.25H306.211ZM305.711 504.25H305.211V506.25H305.711V504.25ZM307.461 506C307.461 505.034 306.678 504.25 305.711 504.25V506.25C305.573 506.25 305.461 506.138 305.461 506H307.461ZM305.711 507.75C306.678 507.75 307.461 506.966 307.461 506H305.461C305.461 505.862 305.573 505.75 305.711 505.75V507.75ZM305.211 507.75H305.711V505.75H305.211V507.75ZM306.211 507.25V506.75H304.211V507.25H306.211Z" fill="black" mask="url(#path-47-inside-6)"/>
<path d="M295.461 520.75C295.461 516.332 299.043 512.75 303.461 512.75C307.88 512.75 311.462 516.332 311.462 520.75C311.462 525.168 307.88 528.75 303.461 528.75C299.043 528.75 295.461 525.168 295.461 520.75Z" stroke="black"/>
<mask id="path-50-inside-7" fill="white">
<path fill-rule="evenodd" clip-rule="evenodd" d="M306.461 513.044V507.25L305.454 507.166C304.128 507.055 302.795 507.055 301.468 507.166L300.461 507.25V513.044C301.394 512.692 302.405 512.5 303.461 512.5C304.517 512.5 305.528 512.692 306.461 513.044Z"/>
</mask>
<path d="M306.461 507.25H307.461V506.33L306.544 506.253L306.461 507.25ZM306.461 513.044L306.108 513.98L307.461 514.491V513.044H306.461ZM305.454 507.166L305.537 506.169H305.537L305.454 507.166ZM301.468 507.166L301.385 506.169L301.468 507.166ZM300.461 507.25L300.378 506.253L299.461 506.33V507.25H300.461ZM300.461 513.044H299.461V514.491L300.814 513.98L300.461 513.044ZM305.461 507.25V513.044H307.461V507.25H305.461ZM305.371 508.162L306.378 508.246L306.544 506.253L305.537 506.169L305.371 508.162ZM301.551 508.162C302.822 508.057 304.1 508.057 305.371 508.162L305.537 506.169C304.156 506.054 302.767 506.054 301.385 506.169L301.551 508.162ZM300.544 508.246L301.551 508.162L301.385 506.169L300.378 506.253L300.544 508.246ZM301.461 513.044V507.25H299.461V513.044H301.461ZM300.814 513.98C301.636 513.67 302.528 513.5 303.461 513.5V511.5C302.283 511.5 301.152 511.715 300.108 512.109L300.814 513.98ZM303.461 513.5C304.395 513.5 305.287 513.67 306.108 513.98L306.814 512.109C305.77 511.715 304.64 511.5 303.461 511.5V513.5Z" fill="black" mask="url(#path-50-inside-7)"/>
<mask id="path-52-inside-8" fill="white">
<path fill-rule="evenodd" clip-rule="evenodd" d="M309.212 514.74V509.25H306.211V512.955C307.336 513.339 308.355 513.953 309.212 514.74Z"/>
</mask>
<path d="M309.212 509.25H310.212V508.25H309.212V509.25ZM309.212 514.74L308.535 515.476L310.212 517.017V514.74H309.212ZM306.211 509.25V508.25H305.211V509.25H306.211ZM306.211 512.955H305.211V513.67L305.888 513.901L306.211 512.955ZM308.212 509.25V514.74H310.212V509.25H308.212ZM306.211 510.25H309.212V508.25H306.211V510.25ZM307.211 512.955V509.25H305.211V512.955H307.211ZM305.888 513.901C306.879 514.24 307.778 514.781 308.535 515.476L309.888 514.004C308.932 513.125 307.793 512.438 306.535 512.008L305.888 513.901Z" fill="black" mask="url(#path-52-inside-8)"/>
<rect x="308" y="477" width="13" height="9" fill="white"/>
<path d="M214.461 334.625C214.461 332.485 216.196 330.75 218.336 330.75C220.476 330.75 222.211 332.485 222.211 334.625C222.211 336.765 220.476 338.5 218.336 338.5C216.196 338.5 214.461 336.765 214.461 334.625Z" stroke="black"/>
<mask id="path-56-inside-9" fill="white">
<path fill-rule="evenodd" clip-rule="evenodd" d="M226.678 335.5C226.48 337.694 225.424 339.64 223.847 341H227.462C227.953 339.2 227.953 337.3 227.462 335.5H226.678ZM213.076 341H209.211C208.962 339.175 208.962 337.325 209.211 335.5H210.244C210.442 337.694 211.499 339.64 213.076 341Z"/>
</mask>
<path d="M226.678 335.5V334.5H225.764L225.682 335.41L226.678 335.5ZM223.847 341L223.194 340.243L221.156 342H223.847V341ZM227.462 341V342H228.225L228.426 341.263L227.462 341ZM227.462 335.5L228.426 335.237L228.225 334.5H227.462V335.5ZM213.076 341V342H215.766L213.729 340.243L213.076 341ZM209.211 341L208.22 341.135L208.338 342H209.211V341ZM209.211 335.5V334.5H208.338L208.22 335.365L209.211 335.5ZM210.244 335.5L211.24 335.41L211.158 334.5H210.244V335.5ZM225.682 335.41C225.508 337.336 224.581 339.046 223.194 340.243L224.5 341.757C226.266 340.234 227.452 338.052 227.674 335.59L225.682 335.41ZM227.462 340H223.847V342H227.462V340ZM226.497 335.763C226.941 337.391 226.941 339.109 226.497 340.737L228.426 341.263C228.964 339.29 228.964 337.21 228.426 335.237L226.497 335.763ZM226.678 336.5H227.462V334.5H226.678V336.5ZM213.076 340H209.211V342H213.076V340ZM210.202 340.865C209.965 339.13 209.965 337.37 210.202 335.635L208.22 335.365C207.959 337.279 207.959 339.221 208.22 341.135L210.202 340.865ZM209.211 336.5H210.244V334.5H209.211V336.5ZM213.729 340.243C212.341 339.046 211.414 337.336 211.24 335.41L209.248 335.59C209.47 338.052 210.656 340.234 212.422 341.757L213.729 340.243Z" fill="black" mask="url(#path-56-inside-9)"/>
<mask id="path-58-inside-10" fill="white">
<path fill-rule="evenodd" clip-rule="evenodd" d="M220.211 321.25H216.711V320.75H216.211C215.797 320.75 215.461 320.414 215.461 320C215.461 319.586 215.797 319.25 216.211 319.25H216.711V317.75H216.211C215.797 317.75 215.461 317.414 215.461 317C215.461 316.586 215.797 316.25 216.211 316.25H216.711V312.75H217.461V291C217.461 290.448 217.909 290 218.461 290C219.014 290 219.461 290.448 219.461 291V312.75H220.211V316.25H220.711C221.126 316.25 221.461 316.586 221.461 317C221.461 317.414 221.126 317.75 220.711 317.75H220.211V319.25H220.711C221.126 319.25 221.461 319.586 221.461 320C221.461 320.414 221.126 320.75 220.711 320.75H220.211V321.25Z"/>
</mask>
<path d="M216.711 321.25H215.711V322.25H216.711V321.25ZM220.211 321.25V322.25H221.211V321.25H220.211ZM216.711 320.75H217.711V319.75H216.711V320.75ZM216.711 319.25V320.25H217.711V319.25H216.711ZM216.711 317.75H217.711V316.75H216.711V317.75ZM216.711 316.25V317.25H217.711V316.25H216.711ZM216.711 312.75V311.75H215.711V312.75H216.711ZM217.461 312.75V313.75H218.461V312.75H217.461ZM219.461 312.75H218.461V313.75H219.461V312.75ZM220.211 312.75H221.211V311.75H220.211V312.75ZM220.211 316.25H219.211V317.25H220.211V316.25ZM220.211 317.75V316.75H219.211V317.75H220.211ZM220.211 319.25H219.211V320.25H220.211V319.25ZM220.211 320.75V319.75H219.211V320.75H220.211ZM216.711 322.25H220.211V320.25H216.711V322.25ZM215.711 320.75V321.25H217.711V320.75H215.711ZM216.211 321.75H216.711V319.75H216.211V321.75ZM214.461 320C214.461 320.966 215.245 321.75 216.211 321.75V319.75C216.349 319.75 216.461 319.862 216.461 320H214.461ZM216.211 318.25C215.245 318.25 214.461 319.034 214.461 320H216.461C216.461 320.138 216.349 320.25 216.211 320.25V318.25ZM216.711 318.25H216.211V320.25H216.711V318.25ZM215.711 317.75V319.25H217.711V317.75H215.711ZM216.211 318.75H216.711V316.75H216.211V318.75ZM214.461 317C214.461 317.966 215.245 318.75 216.211 318.75V316.75C216.349 316.75 216.461 316.862 216.461 317H214.461ZM216.211 315.25C215.245 315.25 214.461 316.034 214.461 317H216.461C216.461 317.138 216.349 317.25 216.211 317.25V315.25ZM216.711 315.25H216.211V317.25H216.711V315.25ZM215.711 312.75V316.25H217.711V312.75H215.711ZM217.461 311.75H216.711V313.75H217.461V311.75ZM218.461 312.75V291H216.461V312.75H218.461ZM218.461 291L218.461 291V289C217.357 289 216.461 289.895 216.461 291H218.461ZM218.461 291L218.461 291H220.461C220.461 289.895 219.566 289 218.461 289V291ZM218.461 291V312.75H220.461V291H218.461ZM220.211 311.75H219.461V313.75H220.211V311.75ZM221.211 316.25V312.75H219.211V316.25H221.211ZM220.711 315.25H220.211V317.25H220.711V315.25ZM222.461 317C222.461 316.034 221.678 315.25 220.711 315.25V317.25C220.573 317.25 220.461 317.138 220.461 317H222.461ZM220.711 318.75C221.678 318.75 222.461 317.966 222.461 317H220.461C220.461 316.862 220.573 316.75 220.711 316.75V318.75ZM220.211 318.75H220.711V316.75H220.211V318.75ZM221.211 319.25V317.75H219.211V319.25H221.211ZM220.711 318.25H220.211V320.25H220.711V318.25ZM222.461 320C222.461 319.034 221.678 318.25 220.711 318.25V320.25C220.573 320.25 220.461 320.138 220.461 320H222.461ZM220.711 321.75C221.678 321.75 222.461 320.966 222.461 320H220.461C220.461 319.862 220.573 319.75 220.711 319.75V321.75ZM220.211 321.75H220.711V319.75H220.211V321.75ZM221.211 321.25V320.75H219.211V321.25H221.211Z" fill="black" mask="url(#path-58-inside-10)"/>
<path d="M210.461 334.75C210.461 330.332 214.043 326.75 218.461 326.75C222.88 326.75 226.462 330.332 226.462 334.75C226.462 339.168 222.88 342.75 218.461 342.75C214.043 342.75 210.461 339.168 210.461 334.75Z" stroke="black"/>
<mask id="path-61-inside-11" fill="white">
<path fill-rule="evenodd" clip-rule="evenodd" d="M221.461 327.045V321.25L220.454 321.166C219.128 321.056 217.795 321.056 216.468 321.166L215.461 321.25V327.045C216.394 326.693 217.405 326.5 218.461 326.5C219.517 326.5 220.528 326.693 221.461 327.045Z"/>
</mask>
<path d="M221.461 321.25H222.461V320.33L221.544 320.253L221.461 321.25ZM221.461 327.045L221.108 327.98L222.461 328.491V327.045H221.461ZM220.454 321.166L220.537 320.17H220.537L220.454 321.166ZM216.468 321.166L216.385 320.17L216.468 321.166ZM215.461 321.25L215.378 320.253L214.461 320.33V321.25H215.461ZM215.461 327.045H214.461V328.491L215.814 327.98L215.461 327.045ZM220.461 321.25V327.045H222.461V321.25H220.461ZM220.371 322.163L221.378 322.247L221.544 320.253L220.537 320.17L220.371 322.163ZM216.551 322.163C217.822 322.057 219.1 322.057 220.371 322.163L220.537 320.17C219.156 320.054 217.767 320.054 216.385 320.17L216.551 322.163ZM215.544 322.247L216.551 322.163L216.385 320.17L215.378 320.253L215.544 322.247ZM216.461 327.045V321.25H214.461V327.045H216.461ZM215.814 327.98C216.636 327.67 217.528 327.5 218.461 327.5V325.5C217.283 325.5 216.152 325.715 215.108 326.109L215.814 327.98ZM218.461 327.5C219.395 327.5 220.287 327.67 221.108 327.98L221.814 326.109C220.77 325.715 219.64 325.5 218.461 325.5V327.5Z" fill="black" mask="url(#path-61-inside-11)"/>
<mask id="path-63-inside-12" fill="white">
<path fill-rule="evenodd" clip-rule="evenodd" d="M224.212 328.74V323.25H221.211V326.955C222.336 327.339 223.355 327.953 224.212 328.74Z"/>
</mask>
<path d="M224.212 323.25H225.212V322.25H224.212V323.25ZM224.212 328.74L223.535 329.476L225.212 331.017V328.74H224.212ZM221.211 323.25V322.25H220.211V323.25H221.211ZM221.211 326.955H220.211V327.67L220.888 327.901L221.211 326.955ZM223.212 323.25V328.74H225.212V323.25H223.212ZM221.211 324.25H224.212V322.25H221.211V324.25ZM222.211 326.955V323.25H220.211V326.955H222.211ZM220.888 327.901C221.879 328.24 222.778 328.781 223.535 329.476L224.888 328.004C223.932 327.125 222.793 326.438 221.535 326.008L220.888 327.901Z" fill="black" mask="url(#path-63-inside-12)"/>
<rect x="223" y="291" width="13" height="9" fill="white"/>
<path d="M320.461 546.625C320.461 544.485 322.196 542.75 324.336 542.75C326.476 542.75 328.211 544.485 328.211 546.625C328.211 548.765 326.476 550.5 324.336 550.5C322.196 550.5 320.461 548.765 320.461 546.625Z" stroke="black"/>
<mask id="path-67-inside-13" fill="white">
<path fill-rule="evenodd" clip-rule="evenodd" d="M332.678 547.5C332.48 549.694 331.424 551.64 329.847 553H333.462C333.953 551.2 333.953 549.3 333.462 547.5H332.678ZM319.076 553H315.211C314.962 551.175 314.962 549.325 315.211 547.5H316.244C316.442 549.694 317.499 551.64 319.076 553Z"/>
</mask>
<path d="M332.678 547.5V546.5H331.764L331.682 547.41L332.678 547.5ZM329.847 553L329.194 552.243L327.156 554H329.847V553ZM333.462 553V554H334.225L334.426 553.263L333.462 553ZM333.462 547.5L334.426 547.237L334.225 546.5H333.462V547.5ZM319.076 553V554H321.766L319.729 552.243L319.076 553ZM315.211 553L314.22 553.135L314.338 554H315.211V553ZM315.211 547.5V546.5H314.338L314.22 547.365L315.211 547.5ZM316.244 547.5L317.24 547.41L317.158 546.5H316.244V547.5ZM331.682 547.41C331.509 549.336 330.581 551.046 329.194 552.243L330.5 553.757C332.266 552.234 333.452 550.052 333.674 547.59L331.682 547.41ZM333.462 552H329.847V554H333.462V552ZM332.497 547.763C332.941 549.391 332.941 551.109 332.497 552.737L334.426 553.263C334.965 551.29 334.965 549.21 334.426 547.237L332.497 547.763ZM332.678 548.5H333.462V546.5H332.678V548.5ZM319.076 552H315.211V554H319.076V552ZM316.202 552.865C315.965 551.13 315.965 549.37 316.202 547.635L314.22 547.365C313.959 549.279 313.959 551.221 314.22 553.135L316.202 552.865ZM315.211 548.5H316.244V546.5H315.211V548.5ZM319.729 552.243C318.341 551.046 317.414 549.336 317.24 547.41L315.248 547.59C315.47 550.052 316.656 552.234 318.422 553.757L319.729 552.243Z" fill="black" mask="url(#path-67-inside-13)"/>
<mask id="path-69-inside-14" fill="white">
<path fill-rule="evenodd" clip-rule="evenodd" d="M326.211 533.25H322.711V532.75H322.211C321.797 532.75 321.461 532.414 321.461 532C321.461 531.586 321.797 531.25 322.211 531.25H322.711V529.75H322.211C321.797 529.75 321.461 529.414 321.461 529C321.461 528.586 321.797 528.25 322.211 528.25H322.711V524.75H323.461V503C323.461 502.448 323.909 502 324.461 502C325.014 502 325.461 502.448 325.461 503V524.75H326.211V528.25H326.711C327.126 528.25 327.461 528.586 327.461 529C327.461 529.414 327.126 529.75 326.711 529.75H326.211V531.25H326.711C327.126 531.25 327.461 531.586 327.461 532C327.461 532.414 327.126 532.75 326.711 532.75H326.211V533.25Z"/>
</mask>
<path d="M322.711 533.25H321.711V534.25H322.711V533.25ZM326.211 533.25V534.25H327.211V533.25H326.211ZM322.711 532.75H323.711V531.75H322.711V532.75ZM322.711 531.25V532.25H323.711V531.25H322.711ZM322.711 529.75H323.711V528.75H322.711V529.75ZM322.711 528.25V529.25H323.711V528.25H322.711ZM322.711 524.75V523.75H321.711V524.75H322.711ZM323.461 524.75V525.75H324.461V524.75H323.461ZM323.461 503H322.461H323.461ZM325.461 503H324.461H325.461ZM325.461 524.75H324.461V525.75H325.461V524.75ZM326.211 524.75H327.211V523.75H326.211V524.75ZM326.211 528.25H325.211V529.25H326.211V528.25ZM326.211 529.75V528.75H325.211V529.75H326.211ZM326.211 531.25H325.211V532.25H326.211V531.25ZM326.211 532.75V531.75H325.211V532.75H326.211ZM322.711 534.25H326.211V532.25H322.711V534.25ZM321.711 532.75V533.25H323.711V532.75H321.711ZM322.211 533.75H322.711V531.75H322.211V533.75ZM320.461 532C320.461 532.966 321.245 533.75 322.211 533.75V531.75C322.349 531.75 322.461 531.862 322.461 532H320.461ZM322.211 530.25C321.245 530.25 320.461 531.034 320.461 532H322.461C322.461 532.138 322.349 532.25 322.211 532.25V530.25ZM322.711 530.25H322.211V532.25H322.711V530.25ZM321.711 529.75V531.25H323.711V529.75H321.711ZM322.211 530.75H322.711V528.75H322.211V530.75ZM320.461 529C320.461 529.966 321.245 530.75 322.211 530.75V528.75C322.349 528.75 322.461 528.862 322.461 529H320.461ZM322.211 527.25C321.245 527.25 320.461 528.034 320.461 529H322.461C322.461 529.138 322.349 529.25 322.211 529.25V527.25ZM322.711 527.25H322.211V529.25H322.711V527.25ZM321.711 524.75V528.25H323.711V524.75H321.711ZM323.461 523.75H322.711V525.75H323.461V523.75ZM324.461 524.75V503H322.461V524.75H324.461ZM324.461 503L324.461 503V501C323.357 501 322.461 501.895 322.461 503H324.461ZM324.461 503L324.461 503H326.461C326.461 501.895 325.566 501 324.461 501V503ZM324.461 503V524.75H326.461V503H324.461ZM326.211 523.75H325.461V525.75H326.211V523.75ZM327.211 528.25V524.75H325.211V528.25H327.211ZM326.711 527.25H326.211V529.25H326.711V527.25ZM328.461 529C328.461 528.034 327.678 527.25 326.711 527.25V529.25C326.573 529.25 326.461 529.138 326.461 529H328.461ZM326.711 530.75C327.678 530.75 328.461 529.966 328.461 529H326.461C326.461 528.862 326.573 528.75 326.711 528.75V530.75ZM326.211 530.75H326.711V528.75H326.211V530.75ZM327.211 531.25V529.75H325.211V531.25H327.211ZM326.711 530.25H326.211V532.25H326.711V530.25ZM328.461 532C328.461 531.034 327.678 530.25 326.711 530.25V532.25C326.573 532.25 326.461 532.138 326.461 532H328.461ZM326.711 533.75C327.678 533.75 328.461 532.966 328.461 532H326.461C326.461 531.862 326.573 531.75 326.711 531.75V533.75ZM326.211 533.75H326.711V531.75H326.211V533.75ZM327.211 533.25V532.75H325.211V533.25H327.211Z" fill="black" mask="url(#path-69-inside-14)"/>
<path d="M316.461 546.75C316.461 542.332 320.043 538.75 324.461 538.75C328.88 538.75 332.462 542.332 332.462 546.75C332.462 551.168 328.88 554.75 324.461 554.75C320.043 554.75 316.461 551.168 316.461 546.75Z" stroke="black"/>
<mask id="path-72-inside-15" fill="white">
<path fill-rule="evenodd" clip-rule="evenodd" d="M327.461 539.044V533.25L326.454 533.166C325.128 533.055 323.795 533.055 322.468 533.166L321.461 533.25V539.044C322.394 538.692 323.405 538.5 324.461 538.5C325.517 538.5 326.528 538.692 327.461 539.044Z"/>
</mask>
<path d="M327.461 533.25H328.461V532.33L327.544 532.253L327.461 533.25ZM327.461 539.044L327.108 539.98L328.461 540.491V539.044H327.461ZM326.454 533.166L326.537 532.169H326.537L326.454 533.166ZM322.468 533.166L322.385 532.169L322.468 533.166ZM321.461 533.25L321.378 532.253L320.461 532.33V533.25H321.461ZM321.461 539.044H320.461V540.491L321.814 539.98L321.461 539.044ZM326.461 533.25V539.044H328.461V533.25H326.461ZM326.371 534.162L327.378 534.246L327.544 532.253L326.537 532.169L326.371 534.162ZM322.551 534.162C323.822 534.057 325.1 534.057 326.371 534.162L326.537 532.169C325.156 532.054 323.767 532.054 322.385 532.169L322.551 534.162ZM321.544 534.246L322.551 534.162L322.385 532.169L321.378 532.253L321.544 534.246ZM322.461 539.044V533.25H320.461V539.044H322.461ZM321.814 539.98C322.636 539.67 323.528 539.5 324.461 539.5V537.5C323.283 537.5 322.152 537.715 321.108 538.109L321.814 539.98ZM324.461 539.5C325.395 539.5 326.287 539.67 327.108 539.98L327.814 538.109C326.77 537.715 325.64 537.5 324.461 537.5V539.5Z" fill="black" mask="url(#path-72-inside-15)"/>
<mask id="path-74-inside-16" fill="white">
<path fill-rule="evenodd" clip-rule="evenodd" d="M330.212 540.74V535.25H327.211V538.955C328.336 539.339 329.355 539.953 330.212 540.74Z"/>
</mask>
<path d="M330.212 535.25H331.212V534.25H330.212V535.25ZM330.212 540.74L329.535 541.476L331.212 543.017V540.74H330.212ZM327.211 535.25V534.25H326.211V535.25H327.211ZM327.211 538.955H326.211V539.67L326.888 539.901L327.211 538.955ZM329.212 535.25V540.74H331.212V535.25H329.212ZM327.211 536.25H330.212V534.25H327.211V536.25ZM328.211 538.955V535.25H326.211V538.955H328.211ZM326.888 539.901C327.879 540.24 328.778 540.781 329.535 541.476L330.888 540.004C329.932 539.125 328.793 538.438 327.535 538.008L326.888 539.901Z" fill="black" mask="url(#path-74-inside-16)"/>
<rect x="329" y="503" width="13" height="9" fill="white"/>
<path d="M333.414 509.387H336.109V510H332.66V504.312H333.414V509.387ZM337.719 509.387H340.414V510H336.965V504.312H337.719V509.387Z" fill="black"/>
<path d="M214.031 250H213.277V247.371H210.41V250H209.66V244.312H210.41V246.758H213.277V244.312H214.031V250ZM219.734 250H218.98V247.371H216.113V250H215.363V244.312H216.113V246.758H218.98V244.312H219.734V250Z" fill="black"/>
<path d="M232.031 298H231.277V295.371H228.41V298H227.66V292.312H228.41V294.758H231.277V292.312H232.031V298Z" fill="black"/>
<path d="M140.5 567.589V227.411L197.111 216.229C266.388 202.544 337.654 202.341 407.008 215.63L468.5 227.413V567.587L407.008 579.37C337.654 592.659 266.388 592.456 197.111 578.772L140.5 567.589Z" stroke="black"/>
<line x1="140" y1="227.5" x2="469" y2="227.5" stroke="black"/>
<line x1="141" y1="567.5" x2="469" y2="567.5" stroke="black"/>
<path d="M313.414 483.387H316.109V484H312.66V478.312H313.414V483.387Z" fill="black"/>
</svg>
